<?xml version="1.0" encoding="UTF-8" standalone="no"?>
<svg
   xmlns:dc="http://purl.org/dc/elements/1.1/"
   xmlns:cc="http://creativecommons.org/ns#"
   xmlns:rdf="http://www.w3.org/1999/02/22-rdf-syntax-ns#"
   xmlns:svg="http://www.w3.org/2000/svg"
   xmlns="http://www.w3.org/2000/svg"
   viewBox="0 0 329.33334 108"
   height="108"
   width="329.33334"
   xml:space="preserve"
   id="svg2"
   version="1.1"><metadata
     id="metadata8"><rdf:RDF><cc:Work
         rdf:about=""><dc:format>image/svg+xml</dc:format><dc:type
           rdf:resource="http://purl.org/dc/dcmitype/StillImage" /></cc:Work></rdf:RDF></metadata><defs
     id="defs6"><clipPath
       id="clipPath20"
       clipPathUnits="userSpaceOnUse"><path
         id="path18"
         d="M 0,0 H 247 V 81 H 0 Z" /></clipPath></defs><g
     transform="matrix(1.3333333,0,0,-1.3333333,0,108)"
     id="g10"><g
       id="g12" /><g
       id="g14"><g
         clip-path="url(#clipPath20)"
         id="g16"><path
           id="path22"
           style="fill:#ffffff;fill-opacity:1;fill-rule:nonzero;stroke:none"
           d="m -79.5,289.5 h 576 v -733 h -576 z" /><path
           id="path24"
           style="fill:#dbdbdb;fill-opacity:1;fill-rule:nonzero;stroke:none"
           d="m 130.375,69.5 h 38 v -47 h -38 z" /><path
           id="path26"
           style="fill:#dbdbdb;fill-opacity:1;fill-rule:nonzero;stroke:none"
           d="m 180.875,69.5 h 38 v -47 h -38 z" /><path
           id="path28"
           style="fill:#dbdbdb;fill-opacity:1;fill-rule:nonzero;stroke:none"
           d="m 80.375,69.5 h 38 v -47 h -38 z" /><path
           id="path30"
           style="fill:#dbdbdb;fill-opacity:1;fill-rule:nonzero;stroke:none"
           d="m 29.375,69.5 h 38 v -47 h -38 z" /><g
           transform="matrix(1,0,0,-1,-78.5,288.5)"
           id="g32"><path
             id="path34"
             style="fill:none;stroke:#000000;stroke-width:1;stroke-linecap:round;stroke-linejoin:round;stroke-miterlimit:10;stroke-dasharray:none;stroke-opacity:1"
             d="m 185,266 c 16.75,0 32.5,-37.5 43.5,-37.5 11,0 26.75,36.75 43,37.5" /></g><g
           transform="matrix(1,0,0,-1,-78.5,288.5)"
           id="g36"><path
             id="path38"
             style="fill:none;stroke:#000000;stroke-width:1;stroke-linecap:round;stroke-linejoin:round;stroke-miterlimit:10;stroke-dasharray:none;stroke-opacity:1"
             d="m 235.5,266 c 16.75,0 32.5,-37.5 43.5,-37.5 11,0 26.75,36.75 43,37.5" /></g><g
           transform="matrix(1,0,0,-1,-78.5,288.5)"
           id="g40"><path
             id="path42"
             style="fill:none;stroke:#000000;stroke-width:1;stroke-linecap:round;stroke-linejoin:round;stroke-miterlimit:10;stroke-dasharray:none;stroke-opacity:1"
             d="m 135,266 c 16.75,0 32.5,-37.5 43.5,-37.5 11,0 26.75,36.75 43,37.5" /></g><g
           transform="matrix(1,0,0,-1,-78.5,288.5)"
           id="g44"><path
             id="path46"
             style="fill:none;stroke:#000000;stroke-width:1;stroke-linecap:round;stroke-linejoin:round;stroke-miterlimit:10;stroke-dasharray:none;stroke-opacity:1"
             d="m 84,266 c 16.75,0 32.5,-37.5 43.5,-37.5 11,0 26.75,36.75 43,37.5" /></g><g
           transform="matrix(1,0,0,-1,125.5,6)"
           id="g48"><text
             id="text52"
             style="font-variant:normal;font-weight:normal;font-size:9px;font-family:Helvetica;-inkscape-font-specification:Helvetica;writing-mode:lr-tb;fill:#000000;fill-opacity:1;fill-rule:nonzero;stroke:none"
             transform="translate(-18.76025,3.5)"><tspan
               id="tspan50"
               y="0"
               x="0 4.5 9.5058002 11.5056 13.5054 16.0056 20.5056 25.5114 27.5112 32.516998">cell value</tspan></text>
</g><g
           transform="matrix(1,0,0,-1,48.25,17)"
           id="g54"><text
             id="text58"
             style="font-variant:normal;font-weight:normal;font-size:9px;font-family:Helvetica;-inkscape-font-specification:Helvetica;writing-mode:lr-tb;fill:#000000;fill-opacity:1;fill-rule:nonzero;stroke:none"
             transform="translate(-5.005371,3.5)"><tspan
               id="tspan56"
               y="0"
               x="0 5.0057998">00</tspan></text>
</g><g
           transform="matrix(1,0,0,-1,99.25,17)"
           id="g60"><text
             id="text64"
             style="font-variant:normal;font-weight:normal;font-size:9px;font-family:Helvetica;-inkscape-font-specification:Helvetica;writing-mode:lr-tb;fill:#000000;fill-opacity:1;fill-rule:nonzero;stroke:none"
             transform="translate(-5.005371,3.5)"><tspan
               id="tspan62"
               y="0"
               x="0 5.0057998">01</tspan></text>
</g><g
           transform="matrix(1,0,0,-1,149.25,17)"
           id="g66"><text
             id="text70"
             style="font-variant:normal;font-weight:normal;font-size:9px;font-family:Helvetica;-inkscape-font-specification:Helvetica;writing-mode:lr-tb;fill:#000000;fill-opacity:1;fill-rule:nonzero;stroke:none"
             transform="translate(-5.005371,3.5)"><tspan
               id="tspan68"
               y="0"
               x="0 5.0057998">10</tspan></text>
</g><g
           transform="matrix(1,0,0,-1,199.75,17)"
           id="g72"><text
             id="text76"
             style="font-variant:normal;font-weight:normal;font-size:9px;font-family:Helvetica;-inkscape-font-specification:Helvetica;writing-mode:lr-tb;fill:#000000;fill-opacity:1;fill-rule:nonzero;stroke:none"
             transform="translate(-4.673584,3.5)"><tspan
               id="tspan74"
               y="0"
               x="0 4.3415999">11</tspan></text>
</g><path
           id="path78"
           style="fill:#ffffff;fill-opacity:1;fill-rule:nonzero;stroke:none"
           d="M 0.625,45.25 H 23 V 22 H 0.625 Z" /><g
           transform="matrix(1,0,0,-1,-78.5,288.5)"
           id="g80"><path
             id="path82"
             style="fill:none;stroke:#000000;stroke-width:1;stroke-linecap:round;stroke-linejoin:round;stroke-miterlimit:10;stroke-dasharray:none;stroke-opacity:1"
             d="M 102,266 V 217.9" /></g><path
           id="path84"
           style="fill:#000000;fill-opacity:1;fill-rule:nonzero;stroke:none"
           d="m 23.5,74.6 -1.5,-4 h 3 z" /><g
           transform="matrix(1,0,0,-1,-78.5,288.5)"
           id="g86"><path
             id="path88"
             style="fill:none;stroke:#000000;stroke-width:1;stroke-linecap:butt;stroke-linejoin:miter;stroke-miterlimit:10;stroke-dasharray:none;stroke-opacity:1"
             d="m 102,213.9 -1.5,4 h 3 z" /></g><g
           transform="matrix(0,1,1,0,11.5,47.5)"
           id="g90"><text
             id="text94"
             style="font-variant:normal;font-weight:normal;font-size:9px;font-family:Helvetica;-inkscape-font-specification:Helvetica;writing-mode:lr-tb;fill:#000000;fill-opacity:1;fill-rule:nonzero;stroke:none"
             transform="translate(-20.51147,3.5)"><tspan
               id="tspan92"
               y="0"
               x="0 5.0057998 8.0028 13.0086 18.0144 23.020201 28.025999 30.025801 32.0256 34.025398 36.5256">probability</tspan></text>
</g><path
           id="path96"
           style="fill:#ffffff;fill-opacity:1;fill-rule:nonzero;stroke:none"
           d="m 229.5,45.25 h 17 V 22 h -17 z" /><g
           transform="matrix(1,0,0,-1,-78.5,288.5)"
           id="g98"><path
             id="path100"
             style="fill:none;stroke:#000000;stroke-width:1;stroke-linecap:round;stroke-linejoin:round;stroke-miterlimit:10;stroke-dasharray:none;stroke-opacity:1"
             d="M 102,266 H 308.85" /></g><path
           id="path102"
           style="fill:#000000;fill-opacity:1;fill-rule:nonzero;stroke:none"
           d="m 234.35,22.5 -4,1.5 v -3 z" /><g
           transform="matrix(1,0,0,-1,-78.5,288.5)"
           id="g104"><path
             id="path106"
             style="fill:none;stroke:#000000;stroke-width:1;stroke-linecap:butt;stroke-linejoin:miter;stroke-miterlimit:10;stroke-dasharray:none;stroke-opacity:1"
             d="m 312.85,266 -4,-1.5 v 3 z" /></g><g
           transform="matrix(1,0,0,-1,-78.5,288.5)"
           id="g108"><path
             id="path110"
             style="fill:none;stroke:#000000;stroke-width:0.5;stroke-linecap:round;stroke-linejoin:round;stroke-miterlimit:10;stroke-dasharray:none;stroke-opacity:1"
             d="m 110.2,216.875 h 15.6" /></g><g
           transform="matrix(1,0,0,-1,-78.5,288.5)"
           id="g112"><path
             id="path114"
             style="fill:none;stroke:#000000;stroke-width:0.5;stroke-linecap:butt;stroke-linejoin:miter;stroke-miterlimit:10;stroke-dasharray:none;stroke-opacity:1"
             d="m 126.8,216.875 h -1 m 0,-0.375 1,0.375 -1,0.375" /></g><g
           transform="matrix(1,0,0,-1,-78.5,288.5)"
           id="g116"><path
             id="path118"
             style="fill:none;stroke:#000000;stroke-width:0.5;stroke-linecap:butt;stroke-linejoin:miter;stroke-miterlimit:10;stroke-dasharray:none;stroke-opacity:1"
             d="m 109.2,216.875 h 1 m 0,0.375 -1,-0.375 1,-0.375" /></g><g
           transform="matrix(1,0,0,-1,39,76.75)"
           id="g120"><text
             id="text124"
             style="font-style:italic;font-variant:normal;font-size:6px;font-family:Helvetica;-inkscape-font-specification:Helvetica-Oblique;writing-mode:lr-tb;fill:#000000;fill-opacity:1;fill-rule:nonzero;stroke:none"
             transform="translate(-1.83252,2.5)"><tspan
               id="tspan122"
               y="0"
               x="0">T</tspan></text>
</g></g></g></g></svg>