<?xml version="1.0" encoding="UTF-8" standalone="no"?>
<svg
   xmlns:dc="http://purl.org/dc/elements/1.1/"
   xmlns:cc="http://creativecommons.org/ns#"
   xmlns:rdf="http://www.w3.org/1999/02/22-rdf-syntax-ns#"
   xmlns:svg="http://www.w3.org/2000/svg"
   xmlns="http://www.w3.org/2000/svg"
   viewBox="0 0 320 108"
   height="108"
   width="320"
   xml:space="preserve"
   id="svg2"
   version="1.1"><metadata
     id="metadata8"><rdf:RDF><cc:Work
         rdf:about=""><dc:format>image/svg+xml</dc:format><dc:type
           rdf:resource="http://purl.org/dc/dcmitype/StillImage" /></cc:Work></rdf:RDF></metadata><defs
     id="defs6"><clipPath
       id="clipPath20"
       clipPathUnits="userSpaceOnUse"><path
         id="path18"
         d="M 0,0 H 240 V 81 H 0 Z" /></clipPath></defs><g
     transform="matrix(1.3333333,0,0,-1.3333333,0,108)"
     id="g10"><g
       id="g12" /><g
       id="g14"><g
         clip-path="url(#clipPath20)"
         id="g16"><path
           id="path22"
           style="fill:#ffffff;fill-opacity:1;fill-rule:nonzero;stroke:none"
           d="m -84.5,208.5 h 576 v -733 h -576 z" /><path
           id="path24"
           style="fill:#dbdbdb;fill-opacity:1;fill-rule:nonzero;stroke:none"
           d="m 87.375,69.5 h 13.75 v -47 h -13.75 z" /><g
           transform="matrix(1,0,0,-1,-83.5,207.5)"
           id="g26"><path
             id="path28"
             style="fill:none;stroke:#000000;stroke-width:1;stroke-linecap:round;stroke-linejoin:round;stroke-miterlimit:10;stroke-dasharray:none;stroke-opacity:1"
             d="m 153,185 c 16.75,0 14.5,-37.5 25.5,-37.5 11,0 8.75,36.75 25,37.5" /></g><path
           id="path30"
           style="fill:#dbdbdb;fill-opacity:1;fill-rule:nonzero;stroke:none"
           d="m 137.375,69.5 h 13.75 v -47 h -13.75 z" /><g
           transform="matrix(1,0,0,-1,-83.5,207.5)"
           id="g32"><path
             id="path34"
             style="fill:none;stroke:#000000;stroke-width:1;stroke-linecap:round;stroke-linejoin:round;stroke-miterlimit:10;stroke-dasharray:none;stroke-opacity:1"
             d="m 203,185 c 16.75,0 14.5,-37.5 25.5,-37.5 11,0 8.75,36.75 25,37.5" /></g><path
           id="path36"
           style="fill:#dbdbdb;fill-opacity:1;fill-rule:nonzero;stroke:none"
           d="m 187.875,69.5 h 13.75 v -47 h -13.75 z" /><g
           transform="matrix(1,0,0,-1,-83.5,207.5)"
           id="g38"><path
             id="path40"
             style="fill:none;stroke:#000000;stroke-width:1;stroke-linecap:round;stroke-linejoin:round;stroke-miterlimit:10;stroke-dasharray:none;stroke-opacity:1"
             d="m 253.5,185 c 16.75,0 14.5,-37.5 25.5,-37.5 11,0 8.75,36.75 25,37.5" /></g><g
           transform="matrix(1,0,0,-1,-83.5,207.5)"
           id="g42"><path
             id="path44"
             style="fill:none;stroke:#000000;stroke-width:1;stroke-linecap:round;stroke-linejoin:round;stroke-miterlimit:10;stroke-dasharray:none;stroke-opacity:1"
             d="M 102,185 V 136.9" /></g><path
           id="path46"
           style="fill:#000000;fill-opacity:1;fill-rule:nonzero;stroke:none"
           d="m 18.5,74.6 -1.5,-4 h 3 z" /><g
           transform="matrix(1,0,0,-1,-83.5,207.5)"
           id="g48"><path
             id="path50"
             style="fill:none;stroke:#000000;stroke-width:1;stroke-linecap:butt;stroke-linejoin:miter;stroke-miterlimit:10;stroke-dasharray:none;stroke-opacity:1"
             d="m 102,132.9 -1.5,4 h 3 z" /></g><g
           transform="matrix(1,0,0,-1,120.5,6)"
           id="g52"><text
             id="text56"
             style="font-variant:normal;font-weight:normal;font-size:9px;font-family:Helvetica;-inkscape-font-specification:Helvetica;writing-mode:lr-tb;fill:#000000;fill-opacity:1;fill-rule:nonzero;stroke:none"
             transform="translate(-18.76025,3.5)"><tspan
               id="tspan54"
               y="0"
               x="0 4.5 9.5058002 11.5056 13.5054 16.0056 20.5056 25.5114 27.5112 32.516998">cell value</tspan></text>
</g><g
           transform="matrix(0,1,1,0,6.5,47.5)"
           id="g58"><text
             id="text62"
             style="font-variant:normal;font-weight:normal;font-size:9px;font-family:Helvetica;-inkscape-font-specification:Helvetica;writing-mode:lr-tb;fill:#000000;fill-opacity:1;fill-rule:nonzero;stroke:none"
             transform="translate(-20.51147,3.5)"><tspan
               id="tspan60"
               y="0"
               x="0 5.0057998 8.0028 13.0086 18.0144 23.020201 28.025999 30.025801 32.0256 34.025398 36.5256">probability</tspan></text>
</g><path
           id="path64"
           style="fill:#dbdbdb;fill-opacity:1;fill-rule:nonzero;stroke:none"
           d="m 36.5,69.5 h 13.75 v -47 H 36.5 Z" /><g
           transform="matrix(1,0,0,-1,-83.5,207.5)"
           id="g66"><path
             id="path68"
             style="fill:none;stroke:#000000;stroke-width:1;stroke-linecap:round;stroke-linejoin:round;stroke-miterlimit:10;stroke-dasharray:none;stroke-opacity:1"
             d="m 102.125,185 c 16.75,0 14.5,-37.5 25.5,-37.5 11,0 8.75,36.75 25,37.5" /></g><g
           transform="matrix(1,0,0,-1,43.25,17)"
           id="g70"><text
             id="text74"
             style="font-variant:normal;font-weight:normal;font-size:9px;font-family:Helvetica;-inkscape-font-specification:Helvetica;writing-mode:lr-tb;fill:#000000;fill-opacity:1;fill-rule:nonzero;stroke:none"
             transform="translate(-5.005371,3.5)"><tspan
               id="tspan72"
               y="0"
               x="0 5.0057998">00</tspan></text>
</g><g
           transform="matrix(1,0,0,-1,94.25,17)"
           id="g76"><text
             id="text80"
             style="font-variant:normal;font-weight:normal;font-size:9px;font-family:Helvetica;-inkscape-font-specification:Helvetica;writing-mode:lr-tb;fill:#000000;fill-opacity:1;fill-rule:nonzero;stroke:none"
             transform="translate(-5.005371,3.5)"><tspan
               id="tspan78"
               y="0"
               x="0 5.0057998">01</tspan></text>
</g><g
           transform="matrix(1,0,0,-1,144.25,17)"
           id="g82"><text
             id="text86"
             style="font-variant:normal;font-weight:normal;font-size:9px;font-family:Helvetica;-inkscape-font-specification:Helvetica;writing-mode:lr-tb;fill:#000000;fill-opacity:1;fill-rule:nonzero;stroke:none"
             transform="translate(-5.005371,3.5)"><tspan
               id="tspan84"
               y="0"
               x="0 5.0057998">10</tspan></text>
</g><g
           transform="matrix(1,0,0,-1,194.75,17)"
           id="g88"><text
             id="text92"
             style="font-variant:normal;font-weight:normal;font-size:9px;font-family:Helvetica;-inkscape-font-specification:Helvetica;writing-mode:lr-tb;fill:#000000;fill-opacity:1;fill-rule:nonzero;stroke:none"
             transform="translate(-4.673584,3.5)"><tspan
               id="tspan90"
               y="0"
               x="0 4.3415999">11</tspan></text>
</g><g
           transform="matrix(1,0,0,-1,-83.5,207.5)"
           id="g94"><path
             id="path96"
             style="fill:none;stroke:#000000;stroke-width:1;stroke-linecap:round;stroke-linejoin:round;stroke-miterlimit:10;stroke-dasharray:none;stroke-opacity:1"
             d="M 102,185 H 308.85" /></g><path
           id="path98"
           style="fill:#000000;fill-opacity:1;fill-rule:nonzero;stroke:none"
           d="m 229.35,22.5 -4,1.5 v -3 z" /><g
           transform="matrix(1,0,0,-1,-83.5,207.5)"
           id="g100"><path
             id="path102"
             style="fill:none;stroke:#000000;stroke-width:1;stroke-linecap:butt;stroke-linejoin:miter;stroke-miterlimit:10;stroke-dasharray:none;stroke-opacity:1"
             d="m 312.85,185 -4,-1.5 v 3 z" /></g><g
           transform="matrix(1,0,0,-1,-83.5,207.5)"
           id="g104"><path
             id="path106"
             style="fill:none;stroke:#000000;stroke-width:0.5;stroke-linecap:round;stroke-linejoin:round;stroke-miterlimit:10;stroke-dasharray:none;stroke-opacity:1"
             d="m 122.2,135.875 h 3.6" /></g><g
           transform="matrix(1,0,0,-1,-83.5,207.5)"
           id="g108"><path
             id="path110"
             style="fill:none;stroke:#000000;stroke-width:0.5;stroke-linecap:butt;stroke-linejoin:miter;stroke-miterlimit:10;stroke-dasharray:none;stroke-opacity:1"
             d="m 126.8,135.875 h -1 m 0,-0.375 1,0.375 -1,0.375" /></g><g
           transform="matrix(1,0,0,-1,-83.5,207.5)"
           id="g112"><path
             id="path114"
             style="fill:none;stroke:#000000;stroke-width:0.5;stroke-linecap:butt;stroke-linejoin:miter;stroke-miterlimit:10;stroke-dasharray:none;stroke-opacity:1"
             d="m 121.2,135.875 h 1 m 0,0.375 -1,-0.375 1,-0.375" /></g><g
           transform="matrix(1,0,0,-1,40,76.75)"
           id="g116"><text
             id="text120"
             style="font-style:italic;font-variant:normal;font-size:6px;font-family:Helvetica;-inkscape-font-specification:Helvetica-Oblique;writing-mode:lr-tb;fill:#000000;fill-opacity:1;fill-rule:nonzero;stroke:none"
             transform="translate(-1.83252,2.5)"><tspan
               id="tspan118"
               y="0"
               x="0">T</tspan></text>
</g><g
           transform="matrix(1,0,0,-1,-83.5,207.5)"
           id="g122"><path
             id="path124"
             style="fill:none;stroke:#000000;stroke-width:0.5;stroke-linecap:round;stroke-linejoin:round;stroke-miterlimit:10;stroke-dasharray:none;stroke-opacity:1"
             d="M 136.45,135.875 H 169.3" /></g><g
           transform="matrix(1,0,0,-1,-83.5,207.5)"
           id="g126"><path
             id="path128"
             style="fill:none;stroke:#000000;stroke-width:0.5;stroke-linecap:butt;stroke-linejoin:miter;stroke-miterlimit:10;stroke-dasharray:none;stroke-opacity:1"
             d="m 170.3,135.875 h -1 m 0,-0.375 1,0.375 -1,0.375" /></g><g
           transform="matrix(1,0,0,-1,-83.5,207.5)"
           id="g130"><path
             id="path132"
             style="fill:none;stroke:#000000;stroke-width:0.5;stroke-linecap:butt;stroke-linejoin:miter;stroke-miterlimit:10;stroke-dasharray:none;stroke-opacity:1"
             d="m 135.45,135.875 h 1 m 0,0.375 -1,-0.375 1,-0.375" /></g><g
           transform="matrix(1,0,0,-1,68.875,76.75)"
           id="g134"><text
             id="text138"
             style="font-variant:normal;font-weight:normal;font-size:6px;font-family:Helvetica;-inkscape-font-specification:Helvetica;writing-mode:lr-tb;fill:#000000;fill-opacity:1;fill-rule:nonzero;stroke:none"
             transform="translate(-15.18018,2.5)"><tspan
               id="tspan136"
               y="0"
               x="0 3.3371999 6.6743999 10.0116 12.0096 15.3468 17.013599 20.3508 23.688 27.0252">guard band</tspan></text>
</g></g></g></g></svg>