<?xml version="1.0" encoding="UTF-8" standalone="no"?>
<!DOCTYPE svg PUBLIC "-//W3C//DTD SVG 1.1//EN"
 "http://www.w3.org/Graphics/SVG/1.1/DTD/svg11.dtd">
<!-- Generated by graphviz version 10.0.1 (20240210.2158)
 -->
<!-- Title: graphname Pages: 1 -->
<svg width="638pt" height="111pt"
 viewBox="0.00 0.00 638.33 110.75" xmlns="http://www.w3.org/2000/svg" xmlns:xlink="http://www.w3.org/1999/xlink">
<g id="graph0" class="graph" transform="scale(1 1) rotate(0) translate(4 106.75)">
<title>graphname</title>
<polygon fill="white" stroke="none" points="-4,4 -4,-106.75 634.33,-106.75 634.33,4 -4,4"/>
<!-- 1 -->
<g id="node1" class="node">
<title>1</title>
<polygon fill="none" stroke="black" stroke-width="2" points="1,-1 1,-29 97,-29 97,-1 1,-1"/>
<text text-anchor="start" x="6.62" y="-9.7" font-family="Times,serif" font-size="14.00">1:CAAATAAG</text>
</g>
<!-- 2 -->
<g id="node2" class="node">
<title>2</title>
<polygon fill="none" stroke="black" stroke-width="2" points="163.5,-1 163.5,-29 352.5,-29 352.5,-1 163.5,-1"/>
<text text-anchor="start" x="169.12" y="-9.7" font-family="Times,serif" font-size="14.00">2:AAATTTTCTGGAGTTCTAT</text>
</g>
<!-- 1&#45;&gt;2 -->
<g id="edge1" class="edge">
<title>1:ne&#45;&gt;2:nw</title>
<path fill="none" stroke="black" stroke-width="2" d="M98,-31C98,-59.44 162,-59.44 162,-31"/>
<text text-anchor="start" x="116" y="-58.45" font-family="Times,serif" font-size="14.00" fill="#666666">🎷</text>
<text text-anchor="start" x="130.25" y="-58.45" font-family="Times,serif" font-size="14.00" fill="#a6761d">🕌</text>
</g>
<!-- 3 -->
<g id="node3" class="node">
<title>3</title>
<polygon fill="none" stroke="black" stroke-width="2" points="404.75,-52 404.75,-80 452.75,-80 452.75,-52 404.75,-52"/>
<text text-anchor="start" x="410.38" y="-60.7" font-family="Times,serif" font-size="14.00">3:TTG</text>
</g>
<!-- 2&#45;&gt;3 -->
<g id="edge2" class="edge">
<title>2:ne&#45;&gt;3:nw</title>
<path fill="none" stroke="black" stroke-width="2" d="M354,-31C354,-62.67 403.75,-113.67 403.75,-82"/>
<text text-anchor="start" x="371.5" y="-89.45" font-family="Times,serif" font-size="14.00" fill="#a6761d">🕌</text>
</g>
<!-- 4 -->
<g id="node4" class="node">
<title>4</title>
<polygon fill="none" stroke="black" stroke-width="2" points="505,-27 505,-55 626,-55 626,-27 505,-27"/>
<text text-anchor="start" x="510.75" y="-35.7" font-family="Times,serif" font-size="14.00">4:CCAACTCTCTG</text>
</g>
<!-- 2&#45;&gt;4 -->
<g id="edge3" class="edge">
<title>2:ne&#45;&gt;4:se</title>
<path fill="none" stroke="black" stroke-width="2" d="M354,-31C354,-53.38 381.44,-24.98 403.75,-23.25 474.59,-17.77 627.5,-8.5 627.5,-25"/>
<text text-anchor="start" x="421.62" y="-29.45" font-family="Times,serif" font-size="14.00" fill="#666666">🎷</text>
</g>
<!-- 3&#45;&gt;4 -->
<g id="edge4" class="edge">
<title>3:ne&#45;&gt;4:se</title>
<path fill="none" stroke="black" stroke-width="2" d="M453.75,-82C453.75,-115.44 473.46,-39.63 504,-26 554.12,-3.63 584.24,7.78 627.5,-26 628.94,-27.13 630.33,-30 628.5,-30"/>
<text text-anchor="start" x="471.75" y="-68.45" font-family="Times,serif" font-size="14.00" fill="#a6761d">🕌</text>
</g>
</g>
</svg>
