<svg width="409" height="198" version="1.1" xmlns="http://www.w3.org/2000/svg" xmlns:xlink="http://www.w3.org/1999/xlink"><g transform="translate(29,10)"><g id="g51"><g transform="translate(0,0)"><rect class="background" style="pointer-events: none; fill: none;" width="300" height="150"></rect><g id="g52"><g transform="translate(11,0)"><rect class="background" style="fill: none;" width="86" height="150"></rect><g id="g53"><g transform="translate(0,0)"><rect class="background" style="fill: none;" width="0" height="0"></rect><g id="g54" style=""><rect x="0" y="33.75" width="43" height="116.25" style="fill: #000000;"></rect><rect x="43" y="71.25" width="43" height="78.75" style="fill: #000000;"></rect></g></g><g transform="translate(0,0)"><rect class="background" style="fill: none;" width="0" height="0"></rect><g id="g55" style=""><rect x="0" y="37.5" width="43" height="112.5" style="fill: #999999;"></rect><rect x="43" y="78.75" width="43" height="71.25" style="fill: #999999;"></rect></g></g></g><g id="g56"><g transform="translate(0,150)"><rect class="background" style="pointer-events: none; fill: none;" width="0" height="0"></rect><g id="g57" style="pointer-events: none;"></g><g id="g58" style="pointer-events: none;"><line x1="22" y1="0" x2="22" y2="0" style="fill: none; stroke: #000; stroke-width: 1; opacity: 1;"></line><line x1="65" y1="0" x2="65" y2="0" style="fill: none; stroke: #000; stroke-width: 1; opacity: 1;"></line></g><g id="g59" style="pointer-events: none;"></g><g id="g60" style=""><text x="22" y="7" dy=".9em" text-anchor="middle" style="font: 9px sans-serif; fill: #000; opacity: 1;">A</text><text x="65" y="7" dy=".9em" text-anchor="middle" style="font: 9px sans-serif; fill: #000; opacity: 1;">B</text></g><g id="g61" style="pointer-events: none;"><path transform="translate(0.5,0.5)" d="M0,0V0H86V0" style="fill: none; stroke: #000; stroke-width: 1;"></path></g><g id="g62" style=""></g></g></g></g><g transform="translate(107,0)"><rect class="background" style="fill: none;" width="86" height="150"></rect><g id="g63"><g transform="translate(0,0)"><rect class="background" style="fill: none;" width="0" height="0"></rect><g id="g64" style=""><rect x="0" y="37.5" width="43" height="112.5" style="fill: #000000;"></rect><rect x="43" y="0" width="43" height="150" style="fill: #000000;"></rect></g></g><g transform="translate(0,0)"><rect class="background" style="fill: none;" width="0" height="0"></rect><g id="g65" style=""><rect x="0" y="90" width="43" height="60" style="fill: #999999;"></rect><rect x="43" y="108.75" width="43" height="41.25" style="fill: #999999;"></rect></g></g></g><g id="g66"><g transform="translate(0,150)"><rect class="background" style="pointer-events: none; fill: none;" width="0" height="0"></rect><g id="g67" style="pointer-events: none;"></g><g id="g68" style="pointer-events: none;"><line x1="22" y1="0" x2="22" y2="0" style="fill: none; stroke: #000; stroke-width: 1; opacity: 1;"></line><line x1="65" y1="0" x2="65" y2="0" style="fill: none; stroke: #000; stroke-width: 1; opacity: 1;"></line></g><g id="g69" style="pointer-events: none;"></g><g id="g70" style=""><text x="22" y="7" dy=".9em" text-anchor="middle" style="font: 9px sans-serif; fill: #000; opacity: 1;">A</text><text x="65" y="7" dy=".9em" text-anchor="middle" style="font: 9px sans-serif; fill: #000; opacity: 1;">B</text></g><g id="g71" style="pointer-events: none;"><path transform="translate(0.5,0.5)" d="M0,0V0H86V0" style="fill: none; stroke: #000; stroke-width: 1;"></path></g><g id="g72" style=""></g></g></g></g><g transform="translate(203,0)"><rect class="background" style="fill: none;" width="86" height="150"></rect><g id="g73"><g transform="translate(0,0)"><rect class="background" style="fill: none;" width="0" height="0"></rect><g id="g74" style=""><rect x="0" y="120" width="43" height="30" style="fill: #000000;"></rect><rect x="43" y="18.75" width="43" height="131.25" style="fill: #000000;"></rect></g></g><g transform="translate(0,0)"><rect class="background" style="fill: none;" width="0" height="0"></rect><g id="g75" style=""><rect x="0" y="135" width="43" height="15" style="fill: #999999;"></rect><rect x="43" y="63.749999999999986" width="43" height="86.25000000000001" style="fill: #999999;"></rect></g></g></g><g id="g76"><g transform="translate(0,150)"><rect class="background" style="pointer-events: none; fill: none;" width="0" height="0"></rect><g id="g77" style="pointer-events: none;"></g><g id="g78" style="pointer-events: none;"><line x1="22" y1="0" x2="22" y2="0" style="fill: none; stroke: #000; stroke-width: 1; opacity: 1;"></line><line x1="65" y1="0" x2="65" y2="0" style="fill: none; stroke: #000; stroke-width: 1; opacity: 1;"></line></g><g id="g79" style="pointer-events: none;"></g><g id="g80" style=""><text x="22" y="7" dy=".9em" text-anchor="middle" style="font: 9px sans-serif; fill: #000; opacity: 1;">A</text><text x="65" y="7" dy=".9em" text-anchor="middle" style="font: 9px sans-serif; fill: #000; opacity: 1;">B</text></g><g id="g81" style="pointer-events: none;"><path transform="translate(0.5,0.5)" d="M0,0V0H86V0" style="fill: none; stroke: #000; stroke-width: 1;"></path></g><g id="g82" style=""></g></g></g></g></g><g id="g83"><g transform="translate(0,150)"><rect class="background" style="pointer-events: none; fill: none;" width="0" height="0"></rect><g id="g84" style="pointer-events: none;"></g><g id="g85" style="pointer-events: none;"><line x1="54.5" y1="0" x2="54.5" y2="0" style="fill: none; stroke: #000; stroke-width: 1; opacity: 1;"></line><line x1="150.5" y1="0" x2="150.5" y2="0" style="fill: none; stroke: #000; stroke-width: 1; opacity: 1;"></line><line x1="246.5" y1="0" x2="246.5" y2="0" style="fill: none; stroke: #000; stroke-width: 1; opacity: 1;"></line></g><g id="g86" style="pointer-events: none;"></g><g id="g87" style=""><text x="54.5" y="18" dy=".9em" text-anchor="middle" style="font: 11px sans-serif; fill: #000; opacity: 1;">foo</text><text x="150.5" y="18" dy=".9em" text-anchor="middle" style="font: 11px sans-serif; fill: #000; opacity: 1;">bar</text><text x="246.5" y="18" dy=".9em" text-anchor="middle" style="font: 11px sans-serif; fill: #000; opacity: 1;">baz</text></g><g id="g88" style="pointer-events: none;"><path transform="translate(0.5,0.5)" d="M0,0V0H300V0" style="fill: none; stroke: #000; stroke-width: 1;"></path></g><g id="g89" style=""></g></g></g><g id="g90"><g transform="translate(0,0)"><rect class="background" style="pointer-events: none; fill: none;" width="0" height="0"></rect><g id="g91" style="pointer-events: none;"></g><g id="g92" style="pointer-events: none;"><line x1="-6" y1="150.5" x2="0" y2="150.5" style="fill: none; stroke: #000; stroke-width: 1; opacity: 1;"></line><line x1="-6" y1="131.75" x2="0" y2="131.75" style="fill: none; stroke: #000; stroke-width: 1; opacity: 1;"></line><line x1="-6" y1="113" x2="0" y2="113" style="fill: none; stroke: #000; stroke-width: 1; opacity: 1;"></line><line x1="-6" y1="94.25" x2="0" y2="94.25" style="fill: none; stroke: #000; stroke-width: 1; opacity: 1;"></line><line x1="-6" y1="75.5" x2="0" y2="75.5" style="fill: none; stroke: #000; stroke-width: 1; opacity: 1;"></line><line x1="-6" y1="56.75" x2="0" y2="56.75" style="fill: none; stroke: #000; stroke-width: 1; opacity: 1;"></line><line x1="-6" y1="38" x2="0" y2="38" style="fill: none; stroke: #000; stroke-width: 1; opacity: 1;"></line><line x1="-6" y1="19.25" x2="0" y2="19.25" style="fill: none; stroke: #000; stroke-width: 1; opacity: 1;"></line><line x1="-6" y1="0.5" x2="0" y2="0.5" style="fill: none; stroke: #000; stroke-width: 1; opacity: 1;"></line></g><g id="g93" style="pointer-events: none;"></g><g id="g94" style=""><text x="-9" y="150.5" dy=".35em" text-anchor="end" style="font: 11px sans-serif; fill: #000; opacity: 1;">0</text><text x="-9" y="131.75" dy=".35em" text-anchor="end" style="font: 11px sans-serif; fill: #000; opacity: 1;">5</text><text x="-9" y="113" dy=".35em" text-anchor="end" style="font: 11px sans-serif; fill: #000; opacity: 1;">10</text><text x="-9" y="94.25" dy=".35em" text-anchor="end" style="font: 11px sans-serif; fill: #000; opacity: 1;">15</text><text x="-9" y="75.5" dy=".35em" text-anchor="end" style="font: 11px sans-serif; fill: #000; opacity: 1;">20</text><text x="-9" y="56.75" dy=".35em" text-anchor="end" style="font: 11px sans-serif; fill: #000; opacity: 1;">25</text><text x="-9" y="38" dy=".35em" text-anchor="end" style="font: 11px sans-serif; fill: #000; opacity: 1;">30</text><text x="-9" y="19.25" dy=".35em" text-anchor="end" style="font: 11px sans-serif; fill: #000; opacity: 1;">35</text><text x="-9" y="0.5" dy=".35em" text-anchor="end" style="font: 11px sans-serif; fill: #000; opacity: 1;">40</text></g><g id="g95" style="pointer-events: none;"><path transform="translate(0.5,0.5)" d="M-6,0H0V150H-6" style="fill: none; stroke: #000; stroke-width: 1;"></path></g><g id="g96" style=""></g></g></g><g id="g97"><g transform="translate(311.5,0.5)"><rect class="background" style="pointer-events: none; fill: none;" width="63" height="33"></rect><g id="g98" style="pointer-events: none;"></g><g id="g99" style="pointer-events: none;"><path transform="translate(7.5,7)" d="M-3.5355339059327378,-3.5355339059327378L3.5355339059327378,-3.5355339059327378 3.5355339059327378,3.5355339059327378 -3.5355339059327378,3.5355339059327378Z" style="fill: #000000; stroke: transparent; stroke-width: 0; opacity: 1;"></path><path transform="translate(7.5,22)" d="M-3.5355339059327378,-3.5355339059327378L3.5355339059327378,-3.5355339059327378 3.5355339059327378,3.5355339059327378 -3.5355339059327378,3.5355339059327378Z" style="fill: #999999; stroke: transparent; stroke-width: 0; opacity: 1;"></path></g><g id="g100" style="pointer-events: none;"><text x="16" y="7" dy=".35em" text-anchor="start" style="font: 10px sans-serif; fill: #000; opacity: 1;">compile</text><text x="16" y="22" dy=".35em" text-anchor="start" style="font: 10px sans-serif; fill: #000; opacity: 1;">execute</text></g></g></g></g></g></g></svg>