<svg width="528" height="292" version="1.1" xmlns="http://www.w3.org/2000/svg" xmlns:xlink="http://www.w3.org/1999/xlink"><g transform="translate(22,10)"><g id="g19"><g transform="translate(0,0)"><rect class="background" style="pointer-events: none; fill: none;" width="500" height="200"></rect><g id="g20" style=""><path d="M0,150L3.3783783783783785,200L6.756756756756757,200L10.135135135135135,200L13.513513513513514,200L16.89189189189189,200L20.27027027027027,150L23.64864864864865,200L27.027027027027028,150L30.405405405405407,100L33.78378378378378,150L37.16216216216216,100L40.54054054054054,150L43.91891891891892,100L47.2972972972973,100L50.67567567567568,100L54.054054054054056,150L57.432432432432435,100L60.810810810810814,100L64.18918918918918,150L67.56756756756756,150L70.94594594594594,100L74.32432432432432,150L77.7027027027027,150L81.08108108108108,100L84.45945945945945,100L87.83783783783784,100L91.21621621621621,150L94.5945945945946,150L97.97297297297297,100L101.35135135135135,100L104.72972972972973,200L108.10810810810811,150L111.48648648648648,100L114.86486486486487,150L118.24324324324324,150L121.62162162162163,200L125,100L128.37837837837836,100L131.75675675675677,200L135.13513513513513,100L138.51351351351352,150L141.89189189189187,100L145.2702702702703,150L148.64864864864865,150L152.02702702702703,150L155.4054054054054,200L158.7837837837838,50L162.16216216216216,50L165.54054054054055,150L168.9189189189189,100L172.29729729729732,150L175.67567567567568,100L179.05405405405406,150L182.43243243243242,100L185.81081081081084,150L189.1891891891892,150L192.56756756756758,150L195.94594594594594,100L199.32432432432435,150L202.7027027027027,100L206.0810810810811,150L209.45945945945945,100L212.83783783783784,100L216.21621621621622,150L219.5945945945946,150L222.97297297297297,100L226.35135135135135,100L229.72972972972974,150L233.10810810810813,100L236.48648648648648,200L239.86486486486487,150L243.24324324324326,100L246.62162162162164,150L250,150L253.3783783783784,100L256.7567567567567,100L260.13513513513516,50L263.51351351351354,150L266.8918918918919,100L270.27027027027026,100L273.64864864864865,100L277.02702702702703,100L280.4054054054054,100L283.78378378378375,100L287.1621621621622,50L290.5405405405406,100L293.9189189189189,100L297.2972972972973,100L300.6756756756757,150L304.05405405405406,100L307.43243243243245,150L310.8108108108108,200L314.1891891891892,150L317.5675675675676,150L320.94594594594594,100L324.3243243243243,150L327.7027027027027,150L331.0810810810811,150L334.4594594594595,200L337.8378378378378,100L341.21621621621625,100L344.59459459459464,150L347.97297297297297,150L351.35135135135135,200L354.72972972972974,150L358.1081081081081,200L361.4864864864865,150L364.86486486486484,200L368.2432432432433,100L371.62162162162167,200L375,200L378.3783783783784,150L381.7567567567567,50L385.13513513513516,0L388.51351351351354,50L391.8918918918919,50L395.27027027027026,200L398.6486486486487,200L402.02702702702703,200L405.4054054054054,200L408.78378378378375,200L412.1621621621622,150L415.5405405405406,200L418.9189189189189,200L422.2972972972973,200L425.6756756756757,150L429.05405405405406,200L432.43243243243245,100L435.8108108108108,150L439.1891891891892,200L442.5675675675676,150L445.94594594594594,150L449.3243243243243,150L452.7027027027027,200L456.0810810810811,150L459.4594594594595,200L462.8378378378378,200L466.21621621621625,200L469.59459459459464,100L472.97297297297297,200L476.35135135135135,150L479.72972972972974,150L483.1081081081081,150L486.4864864864865,100L489.86486486486484,150L493.2432432432433,100L496.62162162162167,150L500,150L500,200L496.62162162162167,200L493.2432432432433,200L489.86486486486484,200L486.4864864864865,200L483.1081081081081,200L479.72972972972974,200L476.35135135135135,200L472.97297297297297,200L469.59459459459464,200L466.21621621621625,200L462.8378378378378,200L459.4594594594595,200L456.0810810810811,200L452.7027027027027,200L449.3243243243243,200L445.94594594594594,200L442.5675675675676,200L439.1891891891892,200L435.8108108108108,200L432.43243243243245,200L429.05405405405406,200L425.6756756756757,200L422.2972972972973,200L418.9189189189189,200L415.5405405405406,200L412.1621621621622,200L408.78378378378375,200L405.4054054054054,200L402.02702702702703,200L398.6486486486487,200L395.27027027027026,200L391.8918918918919,200L388.51351351351354,200L385.13513513513516,200L381.7567567567567,200L378.3783783783784,200L375,200L371.62162162162167,200L368.2432432432433,200L364.86486486486484,200L361.4864864864865,200L358.1081081081081,200L354.72972972972974,200L351.35135135135135,200L347.97297297297297,200L344.59459459459464,200L341.21621621621625,200L337.8378378378378,200L334.4594594594595,200L331.0810810810811,200L327.7027027027027,200L324.3243243243243,200L320.94594594594594,200L317.5675675675676,200L314.1891891891892,200L310.8108108108108,200L307.43243243243245,200L304.05405405405406,200L300.6756756756757,200L297.2972972972973,200L293.9189189189189,200L290.5405405405406,200L287.1621621621622,200L283.78378378378375,200L280.4054054054054,200L277.02702702702703,200L273.64864864864865,200L270.27027027027026,200L266.8918918918919,200L263.51351351351354,200L260.13513513513516,200L256.7567567567567,200L253.3783783783784,200L250,200L246.62162162162164,200L243.24324324324326,200L239.86486486486487,200L236.48648648648648,200L233.10810810810813,200L229.72972972972974,200L226.35135135135135,200L222.97297297297297,200L219.5945945945946,200L216.21621621621622,200L212.83783783783784,200L209.45945945945945,200L206.0810810810811,200L202.7027027027027,200L199.32432432432435,200L195.94594594594594,200L192.56756756756758,200L189.1891891891892,200L185.81081081081084,200L182.43243243243242,200L179.05405405405406,200L175.67567567567568,200L172.29729729729732,200L168.9189189189189,200L165.54054054054055,200L162.16216216216216,200L158.7837837837838,200L155.4054054054054,200L152.02702702702703,200L148.64864864864865,200L145.2702702702703,200L141.89189189189187,200L138.51351351351352,200L135.13513513513513,200L131.75675675675677,200L128.37837837837836,200L125,200L121.62162162162163,200L118.24324324324324,200L114.86486486486487,200L111.48648648648648,200L108.10810810810811,200L104.72972972972973,200L101.35135135135135,200L97.97297297297297,200L94.5945945945946,200L91.21621621621621,200L87.83783783783784,200L84.45945945945945,200L81.08108108108108,200L77.7027027027027,200L74.32432432432432,200L70.94594594594594,200L67.56756756756756,200L64.18918918918918,200L60.810810810810814,200L57.432432432432435,200L54.054054054054056,200L50.67567567567568,200L47.2972972972973,200L43.91891891891892,200L40.54054054054054,200L37.16216216216216,200L33.78378378378378,200L30.405405405405407,200L27.027027027027028,200L23.64864864864865,200L20.27027027027027,200L16.89189189189189,200L13.513513513513514,200L10.135135135135135,200L6.756756756756757,200L3.3783783783783785,200L0,200Z" style="fill: #51a012;"></path></g><g id="g21" style=""><text x="304.05405405405406" y="230" dy=".35em" text-anchor="start" transform="rotate(90 304.05405405405406,230)" style="font: bold 11px sans-serif; fill: black; opacity: 0.4;">PLDI d.</text><text x="324.3243243243243" y="230" dy=".35em" text-anchor="start" transform="rotate(90 324.3243243243243,230)" style="font: bold 11px sans-serif; fill: black; opacity: 0.4;">ISCA d.</text><text x="385.13513513513516" y="230" dy=".35em" text-anchor="start" transform="rotate(90 385.13513513513516,230)" style="font: bold 11px sans-serif; fill: black; opacity: 0.4;">MICRO</text><text x="158.7837837837838" y="230" dy=".35em" text-anchor="start" transform="rotate(90 158.7837837837838,230)" style="font: bold 11px sans-serif; fill: black; opacity: 0.4;">C-FAR</text><text x="131.75675675675677" y="230" dy=".35em" text-anchor="start" transform="rotate(90 131.75675675675677,230)" style="font: bold 11px sans-serif; fill: black; opacity: 0.4;">QInF</text></g><g id="g22" style=""><rect x="302.05405405405406" y="0" width="4" height="222.5" style="fill: black; opacity: 0.3;"></rect><rect x="322.3243243243243" y="0" width="4" height="222.5" style="fill: black; opacity: 0.3;"></rect><rect x="383.13513513513516" y="0" width="10.756756756756715" height="222.5" style="fill: black; opacity: 0.3;"></rect><rect x="156.7837837837838" y="0" width="7.378378378378358" height="222.5" style="fill: black; opacity: 0.3;"></rect><rect x="129.75675675675677" y="0" width="4" height="222.5" style="fill: black; opacity: 0.3;"></rect></g><g id="g23"><g transform="translate(0,200)"><rect class="background" style="pointer-events: none; fill: none;" width="0" height="0"></rect><g id="g24" style="pointer-events: none;"></g><g id="g25" style="pointer-events: none;"><line x1="52.16103603603604" y1="0" x2="52.16103603603604" y2="6" style="fill: none; stroke: #000; stroke-width: 1; opacity: 1;"></line><line x1="153.5123873873874" y1="0" x2="153.5123873873874" y2="6" style="fill: none; stroke: #000; stroke-width: 1; opacity: 1;"></line><line x1="258.2421171171171" y1="0" x2="258.2421171171171" y2="6" style="fill: none; stroke: #000; stroke-width: 1; opacity: 1;"></line><line x1="359.73423423423424" y1="0" x2="359.73423423423424" y2="6" style="fill: none; stroke: #000; stroke-width: 1; opacity: 1;"></line><line x1="464.463963963964" y1="0" x2="464.463963963964" y2="6" style="fill: none; stroke: #000; stroke-width: 1; opacity: 1;"></line></g><g id="g26" style="pointer-events: none;"></g><g id="g27" style=""><text x="52.16103603603604" y="9" dy=".9em" text-anchor="middle" style="font: 11px sans-serif; fill: #000; opacity: 1;">September</text><text x="153.5123873873874" y="9" dy=".9em" text-anchor="middle" style="font: 11px sans-serif; fill: #000; opacity: 1;">October</text><text x="258.2421171171171" y="9" dy=".9em" text-anchor="middle" style="font: 11px sans-serif; fill: #000; opacity: 1;">November</text><text x="359.73423423423424" y="9" dy=".9em" text-anchor="middle" style="font: 11px sans-serif; fill: #000; opacity: 1;">December</text><text x="464.463963963964" y="9" dy=".9em" text-anchor="middle" style="font: 11px sans-serif; fill: #000; opacity: 1;">2014</text></g><g id="g28" style="pointer-events: none;"><path transform="translate(0.5,0.5)" d="M0,6V0H500V6" style="fill: none; stroke: #000; stroke-width: 1;"></path></g><g id="g29" style=""></g></g></g><g id="g30"><g transform="translate(0,0)"><rect class="background" style="pointer-events: none; fill: none;" width="0" height="0"></rect><g id="g31" style="pointer-events: none;"></g><g id="g32" style="pointer-events: none;"><line x1="-6" y1="200.5" x2="0" y2="200.5" style="fill: none; stroke: #000; stroke-width: 1; opacity: 1;"></line><line x1="-6" y1="150.5" x2="0" y2="150.5" style="fill: none; stroke: #000; stroke-width: 1; opacity: 1;"></line><line x1="-6" y1="100.5" x2="0" y2="100.5" style="fill: none; stroke: #000; stroke-width: 1; opacity: 1;"></line><line x1="-6" y1="50.5" x2="0" y2="50.5" style="fill: none; stroke: #000; stroke-width: 1; opacity: 1;"></line><line x1="-6" y1="0.5" x2="0" y2="0.5" style="fill: none; stroke: #000; stroke-width: 1; opacity: 1;"></line></g><g id="g33" style="pointer-events: none;"></g><g id="g34" style=""><text x="-9" y="200.5" dy=".35em" text-anchor="end" style="font: 11px sans-serif; fill: #000; opacity: 1;">0</text><text x="-9" y="150.5" dy=".35em" text-anchor="end" style="font: 11px sans-serif; fill: #000; opacity: 1;">1</text><text x="-9" y="100.5" dy=".35em" text-anchor="end" style="font: 11px sans-serif; fill: #000; opacity: 1;">2</text><text x="-9" y="50.5" dy=".35em" text-anchor="end" style="font: 11px sans-serif; fill: #000; opacity: 1;">3</text><text x="-9" y="0.5" dy=".35em" text-anchor="end" style="font: 11px sans-serif; fill: #000; opacity: 1;">4</text></g><g id="g35" style="pointer-events: none;"><path transform="translate(0.5,0.5)" d="M-6,0H0V200H-6" style="fill: none; stroke: #000; stroke-width: 1;"></path></g><g id="g36" style=""></g></g></g></g></g></g></svg>