<svg width="546" height="68" version="1.1" xmlns="http://www.w3.org/2000/svg" xmlns:xlink="http://www.w3.org/1999/xlink"><g transform="translate(23,19)"><g id="g10"><g transform="translate(0,0)"><rect class="background" style="pointer-events: none; fill: none;" width="500" height="20"></rect><g id="g11" style=""><path transform="translate(77.58101851851852,0)" d="M0,13.81976597885342A13.81976597885342,13.81976597885342 0 1,1 0,-13.81976597885342A13.81976597885342,13.81976597885342 0 1,1 0,13.81976597885342Z" style="fill: #51a012; fill-opacity: 0.06;"></path><path transform="translate(355.162037037037,0)" d="M0,13.81976597885342A13.81976597885342,13.81976597885342 0 1,1 0,-13.81976597885342A13.81976597885342,13.81976597885342 0 1,1 0,13.81976597885342Z" style="fill: #51a012; fill-opacity: 0.06;"></path><path transform="translate(93.11342592592592,0)" d="M0,13.81976597885342A13.81976597885342,13.81976597885342 0 1,1 0,-13.81976597885342A13.81976597885342,13.81976597885342 0 1,1 0,13.81976597885342Z" style="fill: #51a012; fill-opacity: 0.06;"></path><path transform="translate(352.07175925925924,0)" d="M0,13.81976597885342A13.81976597885342,13.81976597885342 0 1,1 0,-13.81976597885342A13.81976597885342,13.81976597885342 0 1,1 0,13.81976597885342Z" style="fill: #51a012; fill-opacity: 0.06;"></path><path transform="translate(83.33333333333333,0)" d="M0,13.81976597885342A13.81976597885342,13.81976597885342 0 1,1 0,-13.81976597885342A13.81976597885342,13.81976597885342 0 1,1 0,13.81976597885342Z" style="fill: #51a012; fill-opacity: 0.06;"></path><path transform="translate(82.03703703703704,0)" d="M0,13.81976597885342A13.81976597885342,13.81976597885342 0 1,1 0,-13.81976597885342A13.81976597885342,13.81976597885342 0 1,1 0,13.81976597885342Z" style="fill: #51a012; fill-opacity: 0.06;"></path><path transform="translate(279.86111111111114,0)" d="M0,13.81976597885342A13.81976597885342,13.81976597885342 0 1,1 0,-13.81976597885342A13.81976597885342,13.81976597885342 0 1,1 0,13.81976597885342Z" style="fill: #51a012; fill-opacity: 0.06;"></path><path transform="translate(99.88425925925925,0)" d="M0,13.81976597885342A13.81976597885342,13.81976597885342 0 1,1 0,-13.81976597885342A13.81976597885342,13.81976597885342 0 1,1 0,13.81976597885342Z" style="fill: #51a012; fill-opacity: 0.06;"></path><path transform="translate(101.58564814814815,0)" d="M0,13.81976597885342A13.81976597885342,13.81976597885342 0 1,1 0,-13.81976597885342A13.81976597885342,13.81976597885342 0 1,1 0,13.81976597885342Z" style="fill: #51a012; fill-opacity: 0.06;"></path><path transform="translate(323.9699074074074,0)" d="M0,13.81976597885342A13.81976597885342,13.81976597885342 0 1,1 0,-13.81976597885342A13.81976597885342,13.81976597885342 0 1,1 0,13.81976597885342Z" style="fill: #51a012; fill-opacity: 0.06;"></path><path transform="translate(126.99074074074073,0)" d="M0,13.81976597885342A13.81976597885342,13.81976597885342 0 1,1 0,-13.81976597885342A13.81976597885342,13.81976597885342 0 1,1 0,13.81976597885342Z" style="fill: #51a012; fill-opacity: 0.06;"></path><path transform="translate(315.91435185185185,0)" d="M0,13.81976597885342A13.81976597885342,13.81976597885342 0 1,1 0,-13.81976597885342A13.81976597885342,13.81976597885342 0 1,1 0,13.81976597885342Z" style="fill: #51a012; fill-opacity: 0.06;"></path><path transform="translate(300.3587962962963,0)" d="M0,13.81976597885342A13.81976597885342,13.81976597885342 0 1,1 0,-13.81976597885342A13.81976597885342,13.81976597885342 0 1,1 0,13.81976597885342Z" style="fill: #51a012; fill-opacity: 0.06;"></path><path transform="translate(366.3425925925926,0)" d="M0,13.81976597885342A13.81976597885342,13.81976597885342 0 1,1 0,-13.81976597885342A13.81976597885342,13.81976597885342 0 1,1 0,13.81976597885342Z" style="fill: #51a012; fill-opacity: 0.06;"></path><path transform="translate(288.5069444444444,0)" d="M0,13.81976597885342A13.81976597885342,13.81976597885342 0 1,1 0,-13.81976597885342A13.81976597885342,13.81976597885342 0 1,1 0,13.81976597885342Z" style="fill: #51a012; fill-opacity: 0.06;"></path><path transform="translate(117.63888888888889,0)" d="M0,13.81976597885342A13.81976597885342,13.81976597885342 0 1,1 0,-13.81976597885342A13.81976597885342,13.81976597885342 0 1,1 0,13.81976597885342Z" style="fill: #51a012; fill-opacity: 0.06;"></path><path transform="translate(323.7962962962963,0)" d="M0,13.81976597885342A13.81976597885342,13.81976597885342 0 1,1 0,-13.81976597885342A13.81976597885342,13.81976597885342 0 1,1 0,13.81976597885342Z" style="fill: #51a012; fill-opacity: 0.06;"></path><path transform="translate(85.9375,0)" d="M0,13.81976597885342A13.81976597885342,13.81976597885342 0 1,1 0,-13.81976597885342A13.81976597885342,13.81976597885342 0 1,1 0,13.81976597885342Z" style="fill: #51a012; fill-opacity: 0.06;"></path><path transform="translate(306.8287037037037,0)" d="M0,13.81976597885342A13.81976597885342,13.81976597885342 0 1,1 0,-13.81976597885342A13.81976597885342,13.81976597885342 0 1,1 0,13.81976597885342Z" style="fill: #51a012; fill-opacity: 0.06;"></path><path transform="translate(134.54861111111111,0)" d="M0,13.81976597885342A13.81976597885342,13.81976597885342 0 1,1 0,-13.81976597885342A13.81976597885342,13.81976597885342 0 1,1 0,13.81976597885342Z" style="fill: #51a012; fill-opacity: 0.06;"></path><path transform="translate(171.5972222222222,0)" d="M0,13.81976597885342A13.81976597885342,13.81976597885342 0 1,1 0,-13.81976597885342A13.81976597885342,13.81976597885342 0 1,1 0,13.81976597885342Z" style="fill: #51a012; fill-opacity: 0.06;"></path><path transform="translate(188.37962962962962,0)" d="M0,13.81976597885342A13.81976597885342,13.81976597885342 0 1,1 0,-13.81976597885342A13.81976597885342,13.81976597885342 0 1,1 0,13.81976597885342Z" style="fill: #51a012; fill-opacity: 0.06;"></path><path transform="translate(379.61805555555554,0)" d="M0,13.81976597885342A13.81976597885342,13.81976597885342 0 1,1 0,-13.81976597885342A13.81976597885342,13.81976597885342 0 1,1 0,13.81976597885342Z" style="fill: #51a012; fill-opacity: 0.06;"></path><path transform="translate(356.40046296296293,0)" d="M0,13.81976597885342A13.81976597885342,13.81976597885342 0 1,1 0,-13.81976597885342A13.81976597885342,13.81976597885342 0 1,1 0,13.81976597885342Z" style="fill: #51a012; fill-opacity: 0.06;"></path><path transform="translate(121.59722222222221,0)" d="M0,13.81976597885342A13.81976597885342,13.81976597885342 0 1,1 0,-13.81976597885342A13.81976597885342,13.81976597885342 0 1,1 0,13.81976597885342Z" style="fill: #51a012; fill-opacity: 0.06;"></path><path transform="translate(97.01388888888889,0)" d="M0,13.81976597885342A13.81976597885342,13.81976597885342 0 1,1 0,-13.81976597885342A13.81976597885342,13.81976597885342 0 1,1 0,13.81976597885342Z" style="fill: #51a012; fill-opacity: 0.06;"></path><path transform="translate(257.3726851851852,0)" d="M0,13.81976597885342A13.81976597885342,13.81976597885342 0 1,1 0,-13.81976597885342A13.81976597885342,13.81976597885342 0 1,1 0,13.81976597885342Z" style="fill: #51a012; fill-opacity: 0.06;"></path><path transform="translate(41.157407407407405,0)" d="M0,13.81976597885342A13.81976597885342,13.81976597885342 0 1,1 0,-13.81976597885342A13.81976597885342,13.81976597885342 0 1,1 0,13.81976597885342Z" style="fill: #51a012; fill-opacity: 0.06;"></path><path transform="translate(390.2893518518518,0)" d="M0,13.81976597885342A13.81976597885342,13.81976597885342 0 1,1 0,-13.81976597885342A13.81976597885342,13.81976597885342 0 1,1 0,13.81976597885342Z" style="fill: #51a012; fill-opacity: 0.06;"></path><path transform="translate(97.24537037037037,0)" d="M0,13.81976597885342A13.81976597885342,13.81976597885342 0 1,1 0,-13.81976597885342A13.81976597885342,13.81976597885342 0 1,1 0,13.81976597885342Z" style="fill: #51a012; fill-opacity: 0.06;"></path><path transform="translate(324.29398148148147,0)" d="M0,13.81976597885342A13.81976597885342,13.81976597885342 0 1,1 0,-13.81976597885342A13.81976597885342,13.81976597885342 0 1,1 0,13.81976597885342Z" style="fill: #51a012; fill-opacity: 0.06;"></path><path transform="translate(128.33333333333331,0)" d="M0,13.81976597885342A13.81976597885342,13.81976597885342 0 1,1 0,-13.81976597885342A13.81976597885342,13.81976597885342 0 1,1 0,13.81976597885342Z" style="fill: #51a012; fill-opacity: 0.06;"></path><path transform="translate(134.39814814814815,0)" d="M0,13.81976597885342A13.81976597885342,13.81976597885342 0 1,1 0,-13.81976597885342A13.81976597885342,13.81976597885342 0 1,1 0,13.81976597885342Z" style="fill: #51a012; fill-opacity: 0.06;"></path><path transform="translate(105.38194444444444,0)" d="M0,13.81976597885342A13.81976597885342,13.81976597885342 0 1,1 0,-13.81976597885342A13.81976597885342,13.81976597885342 0 1,1 0,13.81976597885342Z" style="fill: #51a012; fill-opacity: 0.06;"></path><path transform="translate(168.18287037037035,0)" d="M0,13.81976597885342A13.81976597885342,13.81976597885342 0 1,1 0,-13.81976597885342A13.81976597885342,13.81976597885342 0 1,1 0,13.81976597885342Z" style="fill: #51a012; fill-opacity: 0.06;"></path><path transform="translate(125.60185185185185,0)" d="M0,13.81976597885342A13.81976597885342,13.81976597885342 0 1,1 0,-13.81976597885342A13.81976597885342,13.81976597885342 0 1,1 0,13.81976597885342Z" style="fill: #51a012; fill-opacity: 0.06;"></path><path transform="translate(360.9953703703704,0)" d="M0,13.81976597885342A13.81976597885342,13.81976597885342 0 1,1 0,-13.81976597885342A13.81976597885342,13.81976597885342 0 1,1 0,13.81976597885342Z" style="fill: #51a012; fill-opacity: 0.06;"></path><path transform="translate(104.16666666666667,0)" d="M0,13.81976597885342A13.81976597885342,13.81976597885342 0 1,1 0,-13.81976597885342A13.81976597885342,13.81976597885342 0 1,1 0,13.81976597885342Z" style="fill: #51a012; fill-opacity: 0.06;"></path><path transform="translate(113.53009259259258,0)" d="M0,13.81976597885342A13.81976597885342,13.81976597885342 0 1,1 0,-13.81976597885342A13.81976597885342,13.81976597885342 0 1,1 0,13.81976597885342Z" style="fill: #51a012; fill-opacity: 0.06;"></path><path transform="translate(148.85416666666669,0)" d="M0,13.81976597885342A13.81976597885342,13.81976597885342 0 1,1 0,-13.81976597885342A13.81976597885342,13.81976597885342 0 1,1 0,13.81976597885342Z" style="fill: #51a012; fill-opacity: 0.06;"></path><path transform="translate(236.11111111111111,0)" d="M0,13.81976597885342A13.81976597885342,13.81976597885342 0 1,1 0,-13.81976597885342A13.81976597885342,13.81976597885342 0 1,1 0,13.81976597885342Z" style="fill: #51a012; fill-opacity: 0.06;"></path><path transform="translate(117.73148148148148,0)" d="M0,13.81976597885342A13.81976597885342,13.81976597885342 0 1,1 0,-13.81976597885342A13.81976597885342,13.81976597885342 0 1,1 0,13.81976597885342Z" style="fill: #51a012; fill-opacity: 0.06;"></path><path transform="translate(136.05324074074073,0)" d="M0,13.81976597885342A13.81976597885342,13.81976597885342 0 1,1 0,-13.81976597885342A13.81976597885342,13.81976597885342 0 1,1 0,13.81976597885342Z" style="fill: #51a012; fill-opacity: 0.06;"></path><path transform="translate(55.219907407407405,0)" d="M0,13.81976597885342A13.81976597885342,13.81976597885342 0 1,1 0,-13.81976597885342A13.81976597885342,13.81976597885342 0 1,1 0,13.81976597885342Z" style="fill: #51a012; fill-opacity: 0.06;"></path><path transform="translate(197.78935185185185,0)" d="M0,13.81976597885342A13.81976597885342,13.81976597885342 0 1,1 0,-13.81976597885342A13.81976597885342,13.81976597885342 0 1,1 0,13.81976597885342Z" style="fill: #51a012; fill-opacity: 0.06;"></path><path transform="translate(112.91666666666667,0)" d="M0,13.81976597885342A13.81976597885342,13.81976597885342 0 1,1 0,-13.81976597885342A13.81976597885342,13.81976597885342 0 1,1 0,13.81976597885342Z" style="fill: #51a012; fill-opacity: 0.06;"></path><path transform="translate(423.6111111111111,0)" d="M0,13.81976597885342A13.81976597885342,13.81976597885342 0 1,1 0,-13.81976597885342A13.81976597885342,13.81976597885342 0 1,1 0,13.81976597885342Z" style="fill: #51a012; fill-opacity: 0.06;"></path><path transform="translate(53.414351851851855,0)" d="M0,13.81976597885342A13.81976597885342,13.81976597885342 0 1,1 0,-13.81976597885342A13.81976597885342,13.81976597885342 0 1,1 0,13.81976597885342Z" style="fill: #51a012; fill-opacity: 0.06;"></path><path transform="translate(135.41666666666666,0)" d="M0,13.81976597885342A13.81976597885342,13.81976597885342 0 1,1 0,-13.81976597885342A13.81976597885342,13.81976597885342 0 1,1 0,13.81976597885342Z" style="fill: #51a012; fill-opacity: 0.06;"></path><path transform="translate(161.14583333333331,0)" d="M0,13.81976597885342A13.81976597885342,13.81976597885342 0 1,1 0,-13.81976597885342A13.81976597885342,13.81976597885342 0 1,1 0,13.81976597885342Z" style="fill: #51a012; fill-opacity: 0.06;"></path><path transform="translate(183.63425925925924,0)" d="M0,13.81976597885342A13.81976597885342,13.81976597885342 0 1,1 0,-13.81976597885342A13.81976597885342,13.81976597885342 0 1,1 0,13.81976597885342Z" style="fill: #51a012; fill-opacity: 0.06;"></path><path transform="translate(271.33101851851853,0)" d="M0,13.81976597885342A13.81976597885342,13.81976597885342 0 1,1 0,-13.81976597885342A13.81976597885342,13.81976597885342 0 1,1 0,13.81976597885342Z" style="fill: #51a012; fill-opacity: 0.06;"></path><path transform="translate(209.83796296296296,0)" d="M0,13.81976597885342A13.81976597885342,13.81976597885342 0 1,1 0,-13.81976597885342A13.81976597885342,13.81976597885342 0 1,1 0,13.81976597885342Z" style="fill: #51a012; fill-opacity: 0.06;"></path><path transform="translate(140.46296296296296,0)" d="M0,13.81976597885342A13.81976597885342,13.81976597885342 0 1,1 0,-13.81976597885342A13.81976597885342,13.81976597885342 0 1,1 0,13.81976597885342Z" style="fill: #51a012; fill-opacity: 0.06;"></path><path transform="translate(291.04166666666663,0)" d="M0,13.81976597885342A13.81976597885342,13.81976597885342 0 1,1 0,-13.81976597885342A13.81976597885342,13.81976597885342 0 1,1 0,13.81976597885342Z" style="fill: #51a012; fill-opacity: 0.06;"></path><path transform="translate(29.09722222222222,0)" d="M0,13.81976597885342A13.81976597885342,13.81976597885342 0 1,1 0,-13.81976597885342A13.81976597885342,13.81976597885342 0 1,1 0,13.81976597885342Z" style="fill: #51a012; fill-opacity: 0.06;"></path><path transform="translate(150.74074074074073,0)" d="M0,13.81976597885342A13.81976597885342,13.81976597885342 0 1,1 0,-13.81976597885342A13.81976597885342,13.81976597885342 0 1,1 0,13.81976597885342Z" style="fill: #51a012; fill-opacity: 0.06;"></path><path transform="translate(265.9259259259259,0)" d="M0,13.81976597885342A13.81976597885342,13.81976597885342 0 1,1 0,-13.81976597885342A13.81976597885342,13.81976597885342 0 1,1 0,13.81976597885342Z" style="fill: #51a012; fill-opacity: 0.06;"></path><path transform="translate(74.72222222222221,0)" d="M0,13.81976597885342A13.81976597885342,13.81976597885342 0 1,1 0,-13.81976597885342A13.81976597885342,13.81976597885342 0 1,1 0,13.81976597885342Z" style="fill: #51a012; fill-opacity: 0.06;"></path><path transform="translate(138.28703703703704,0)" d="M0,13.81976597885342A13.81976597885342,13.81976597885342 0 1,1 0,-13.81976597885342A13.81976597885342,13.81976597885342 0 1,1 0,13.81976597885342Z" style="fill: #51a012; fill-opacity: 0.06;"></path><path transform="translate(220.25462962962965,0)" d="M0,13.81976597885342A13.81976597885342,13.81976597885342 0 1,1 0,-13.81976597885342A13.81976597885342,13.81976597885342 0 1,1 0,13.81976597885342Z" style="fill: #51a012; fill-opacity: 0.06;"></path><path transform="translate(93.4837962962963,0)" d="M0,13.81976597885342A13.81976597885342,13.81976597885342 0 1,1 0,-13.81976597885342A13.81976597885342,13.81976597885342 0 1,1 0,13.81976597885342Z" style="fill: #51a012; fill-opacity: 0.06;"></path><path transform="translate(100.55555555555556,0)" d="M0,13.81976597885342A13.81976597885342,13.81976597885342 0 1,1 0,-13.81976597885342A13.81976597885342,13.81976597885342 0 1,1 0,13.81976597885342Z" style="fill: #51a012; fill-opacity: 0.06;"></path><path transform="translate(275.86805555555554,0)" d="M0,13.81976597885342A13.81976597885342,13.81976597885342 0 1,1 0,-13.81976597885342A13.81976597885342,13.81976597885342 0 1,1 0,13.81976597885342Z" style="fill: #51a012; fill-opacity: 0.06;"></path><path transform="translate(139.62962962962962,0)" d="M0,13.81976597885342A13.81976597885342,13.81976597885342 0 1,1 0,-13.81976597885342A13.81976597885342,13.81976597885342 0 1,1 0,13.81976597885342Z" style="fill: #51a012; fill-opacity: 0.06;"></path><path transform="translate(118.79629629629629,0)" d="M0,13.81976597885342A13.81976597885342,13.81976597885342 0 1,1 0,-13.81976597885342A13.81976597885342,13.81976597885342 0 1,1 0,13.81976597885342Z" style="fill: #51a012; fill-opacity: 0.06;"></path><path transform="translate(322.77777777777777,0)" d="M0,13.81976597885342A13.81976597885342,13.81976597885342 0 1,1 0,-13.81976597885342A13.81976597885342,13.81976597885342 0 1,1 0,13.81976597885342Z" style="fill: #51a012; fill-opacity: 0.06;"></path><path transform="translate(284.87268518518516,0)" d="M0,13.81976597885342A13.81976597885342,13.81976597885342 0 1,1 0,-13.81976597885342A13.81976597885342,13.81976597885342 0 1,1 0,13.81976597885342Z" style="fill: #51a012; fill-opacity: 0.06;"></path><path transform="translate(63.831018518518526,0)" d="M0,13.81976597885342A13.81976597885342,13.81976597885342 0 1,1 0,-13.81976597885342A13.81976597885342,13.81976597885342 0 1,1 0,13.81976597885342Z" style="fill: #51a012; fill-opacity: 0.06;"></path><path transform="translate(344.1666666666667,0)" d="M0,13.81976597885342A13.81976597885342,13.81976597885342 0 1,1 0,-13.81976597885342A13.81976597885342,13.81976597885342 0 1,1 0,13.81976597885342Z" style="fill: #51a012; fill-opacity: 0.06;"></path><path transform="translate(100.30092592592592,0)" d="M0,13.81976597885342A13.81976597885342,13.81976597885342 0 1,1 0,-13.81976597885342A13.81976597885342,13.81976597885342 0 1,1 0,13.81976597885342Z" style="fill: #51a012; fill-opacity: 0.06;"></path><path transform="translate(181.26157407407405,0)" d="M0,13.81976597885342A13.81976597885342,13.81976597885342 0 1,1 0,-13.81976597885342A13.81976597885342,13.81976597885342 0 1,1 0,13.81976597885342Z" style="fill: #51a012; fill-opacity: 0.06;"></path><path transform="translate(342.2453703703703,0)" d="M0,13.81976597885342A13.81976597885342,13.81976597885342 0 1,1 0,-13.81976597885342A13.81976597885342,13.81976597885342 0 1,1 0,13.81976597885342Z" style="fill: #51a012; fill-opacity: 0.06;"></path><path transform="translate(100.69444444444444,0)" d="M0,13.81976597885342A13.81976597885342,13.81976597885342 0 1,1 0,-13.81976597885342A13.81976597885342,13.81976597885342 0 1,1 0,13.81976597885342Z" style="fill: #51a012; fill-opacity: 0.06;"></path><path transform="translate(289.3171296296296,0)" d="M0,13.81976597885342A13.81976597885342,13.81976597885342 0 1,1 0,-13.81976597885342A13.81976597885342,13.81976597885342 0 1,1 0,13.81976597885342Z" style="fill: #51a012; fill-opacity: 0.06;"></path><path transform="translate(117.21064814814815,0)" d="M0,13.81976597885342A13.81976597885342,13.81976597885342 0 1,1 0,-13.81976597885342A13.81976597885342,13.81976597885342 0 1,1 0,13.81976597885342Z" style="fill: #51a012; fill-opacity: 0.06;"></path><path transform="translate(49.56018518518518,0)" d="M0,13.81976597885342A13.81976597885342,13.81976597885342 0 1,1 0,-13.81976597885342A13.81976597885342,13.81976597885342 0 1,1 0,13.81976597885342Z" style="fill: #51a012; fill-opacity: 0.06;"></path><path transform="translate(267.5462962962963,0)" d="M0,13.81976597885342A13.81976597885342,13.81976597885342 0 1,1 0,-13.81976597885342A13.81976597885342,13.81976597885342 0 1,1 0,13.81976597885342Z" style="fill: #51a012; fill-opacity: 0.06;"></path><path transform="translate(158.2986111111111,0)" d="M0,13.81976597885342A13.81976597885342,13.81976597885342 0 1,1 0,-13.81976597885342A13.81976597885342,13.81976597885342 0 1,1 0,13.81976597885342Z" style="fill: #51a012; fill-opacity: 0.06;"></path><path transform="translate(147.34953703703704,0)" d="M0,13.81976597885342A13.81976597885342,13.81976597885342 0 1,1 0,-13.81976597885342A13.81976597885342,13.81976597885342 0 1,1 0,13.81976597885342Z" style="fill: #51a012; fill-opacity: 0.06;"></path><path transform="translate(326.1458333333333,0)" d="M0,13.81976597885342A13.81976597885342,13.81976597885342 0 1,1 0,-13.81976597885342A13.81976597885342,13.81976597885342 0 1,1 0,13.81976597885342Z" style="fill: #51a012; fill-opacity: 0.06;"></path><path transform="translate(163.37962962962962,0)" d="M0,13.81976597885342A13.81976597885342,13.81976597885342 0 1,1 0,-13.81976597885342A13.81976597885342,13.81976597885342 0 1,1 0,13.81976597885342Z" style="fill: #51a012; fill-opacity: 0.06;"></path><path transform="translate(350.11574074074076,0)" d="M0,13.81976597885342A13.81976597885342,13.81976597885342 0 1,1 0,-13.81976597885342A13.81976597885342,13.81976597885342 0 1,1 0,13.81976597885342Z" style="fill: #51a012; fill-opacity: 0.06;"></path><path transform="translate(308.7962962962963,0)" d="M0,13.81976597885342A13.81976597885342,13.81976597885342 0 1,1 0,-13.81976597885342A13.81976597885342,13.81976597885342 0 1,1 0,13.81976597885342Z" style="fill: #51a012; fill-opacity: 0.06;"></path><path transform="translate(134.88425925925927,0)" d="M0,13.81976597885342A13.81976597885342,13.81976597885342 0 1,1 0,-13.81976597885342A13.81976597885342,13.81976597885342 0 1,1 0,13.81976597885342Z" style="fill: #51a012; fill-opacity: 0.06;"></path><path transform="translate(152.24537037037035,0)" d="M0,13.81976597885342A13.81976597885342,13.81976597885342 0 1,1 0,-13.81976597885342A13.81976597885342,13.81976597885342 0 1,1 0,13.81976597885342Z" style="fill: #51a012; fill-opacity: 0.06;"></path><path transform="translate(354.1666666666667,0)" d="M0,13.81976597885342A13.81976597885342,13.81976597885342 0 1,1 0,-13.81976597885342A13.81976597885342,13.81976597885342 0 1,1 0,13.81976597885342Z" style="fill: #51a012; fill-opacity: 0.06;"></path><path transform="translate(40.70601851851852,0)" d="M0,13.81976597885342A13.81976597885342,13.81976597885342 0 1,1 0,-13.81976597885342A13.81976597885342,13.81976597885342 0 1,1 0,13.81976597885342Z" style="fill: #51a012; fill-opacity: 0.06;"></path><path transform="translate(264.4212962962963,0)" d="M0,13.81976597885342A13.81976597885342,13.81976597885342 0 1,1 0,-13.81976597885342A13.81976597885342,13.81976597885342 0 1,1 0,13.81976597885342Z" style="fill: #51a012; fill-opacity: 0.06;"></path><path transform="translate(81.27314814814815,0)" d="M0,13.81976597885342A13.81976597885342,13.81976597885342 0 1,1 0,-13.81976597885342A13.81976597885342,13.81976597885342 0 1,1 0,13.81976597885342Z" style="fill: #51a012; fill-opacity: 0.06;"></path><path transform="translate(158.69212962962962,0)" d="M0,13.81976597885342A13.81976597885342,13.81976597885342 0 1,1 0,-13.81976597885342A13.81976597885342,13.81976597885342 0 1,1 0,13.81976597885342Z" style="fill: #51a012; fill-opacity: 0.06;"></path><path transform="translate(353.77314814814815,0)" d="M0,13.81976597885342A13.81976597885342,13.81976597885342 0 1,1 0,-13.81976597885342A13.81976597885342,13.81976597885342 0 1,1 0,13.81976597885342Z" style="fill: #51a012; fill-opacity: 0.06;"></path><path transform="translate(81.48148148148148,0)" d="M0,13.81976597885342A13.81976597885342,13.81976597885342 0 1,1 0,-13.81976597885342A13.81976597885342,13.81976597885342 0 1,1 0,13.81976597885342Z" style="fill: #51a012; fill-opacity: 0.06;"></path><path transform="translate(145.94907407407408,0)" d="M0,13.81976597885342A13.81976597885342,13.81976597885342 0 1,1 0,-13.81976597885342A13.81976597885342,13.81976597885342 0 1,1 0,13.81976597885342Z" style="fill: #51a012; fill-opacity: 0.06;"></path><path transform="translate(277.38425925925924,0)" d="M0,13.81976597885342A13.81976597885342,13.81976597885342 0 1,1 0,-13.81976597885342A13.81976597885342,13.81976597885342 0 1,1 0,13.81976597885342Z" style="fill: #51a012; fill-opacity: 0.06;"></path><path transform="translate(250,0)" d="M0,13.81976597885342A13.81976597885342,13.81976597885342 0 1,1 0,-13.81976597885342A13.81976597885342,13.81976597885342 0 1,1 0,13.81976597885342Z" style="fill: #51a012; fill-opacity: 0.06;"></path><path transform="translate(269.5486111111111,0)" d="M0,13.81976597885342A13.81976597885342,13.81976597885342 0 1,1 0,-13.81976597885342A13.81976597885342,13.81976597885342 0 1,1 0,13.81976597885342Z" style="fill: #51a012; fill-opacity: 0.06;"></path><path transform="translate(73.90046296296296,0)" d="M0,13.81976597885342A13.81976597885342,13.81976597885342 0 1,1 0,-13.81976597885342A13.81976597885342,13.81976597885342 0 1,1 0,13.81976597885342Z" style="fill: #51a012; fill-opacity: 0.06;"></path><path transform="translate(312.5,0)" d="M0,13.81976597885342A13.81976597885342,13.81976597885342 0 1,1 0,-13.81976597885342A13.81976597885342,13.81976597885342 0 1,1 0,13.81976597885342Z" style="fill: #51a012; fill-opacity: 0.06;"></path><path transform="translate(109.29398148148148,0)" d="M0,13.81976597885342A13.81976597885342,13.81976597885342 0 1,1 0,-13.81976597885342A13.81976597885342,13.81976597885342 0 1,1 0,13.81976597885342Z" style="fill: #51a012; fill-opacity: 0.06;"></path><path transform="translate(346.85185185185185,0)" d="M0,13.81976597885342A13.81976597885342,13.81976597885342 0 1,1 0,-13.81976597885342A13.81976597885342,13.81976597885342 0 1,1 0,13.81976597885342Z" style="fill: #51a012; fill-opacity: 0.06;"></path><path transform="translate(224.69907407407408,0)" d="M0,13.81976597885342A13.81976597885342,13.81976597885342 0 1,1 0,-13.81976597885342A13.81976597885342,13.81976597885342 0 1,1 0,13.81976597885342Z" style="fill: #51a012; fill-opacity: 0.06;"></path><path transform="translate(273.8310185185185,0)" d="M0,13.81976597885342A13.81976597885342,13.81976597885342 0 1,1 0,-13.81976597885342A13.81976597885342,13.81976597885342 0 1,1 0,13.81976597885342Z" style="fill: #51a012; fill-opacity: 0.06;"></path><path transform="translate(449.45601851851853,0)" d="M0,13.81976597885342A13.81976597885342,13.81976597885342 0 1,1 0,-13.81976597885342A13.81976597885342,13.81976597885342 0 1,1 0,13.81976597885342Z" style="fill: #51a012; fill-opacity: 0.06;"></path><path transform="translate(294.4675925925926,0)" d="M0,13.81976597885342A13.81976597885342,13.81976597885342 0 1,1 0,-13.81976597885342A13.81976597885342,13.81976597885342 0 1,1 0,13.81976597885342Z" style="fill: #51a012; fill-opacity: 0.06;"></path><path transform="translate(133.4375,0)" d="M0,13.81976597885342A13.81976597885342,13.81976597885342 0 1,1 0,-13.81976597885342A13.81976597885342,13.81976597885342 0 1,1 0,13.81976597885342Z" style="fill: #51a012; fill-opacity: 0.06;"></path><path transform="translate(356.79398148148147,0)" d="M0,13.81976597885342A13.81976597885342,13.81976597885342 0 1,1 0,-13.81976597885342A13.81976597885342,13.81976597885342 0 1,1 0,13.81976597885342Z" style="fill: #51a012; fill-opacity: 0.06;"></path><path transform="translate(102.38425925925925,0)" d="M0,13.81976597885342A13.81976597885342,13.81976597885342 0 1,1 0,-13.81976597885342A13.81976597885342,13.81976597885342 0 1,1 0,13.81976597885342Z" style="fill: #51a012; fill-opacity: 0.06;"></path><path transform="translate(250,0)" d="M0,13.81976597885342A13.81976597885342,13.81976597885342 0 1,1 0,-13.81976597885342A13.81976597885342,13.81976597885342 0 1,1 0,13.81976597885342Z" style="fill: #51a012; fill-opacity: 0.06;"></path><path transform="translate(61.43518518518518,0)" d="M0,13.81976597885342A13.81976597885342,13.81976597885342 0 1,1 0,-13.81976597885342A13.81976597885342,13.81976597885342 0 1,1 0,13.81976597885342Z" style="fill: #51a012; fill-opacity: 0.06;"></path><path transform="translate(255.65972222222223,0)" d="M0,13.81976597885342A13.81976597885342,13.81976597885342 0 1,1 0,-13.81976597885342A13.81976597885342,13.81976597885342 0 1,1 0,13.81976597885342Z" style="fill: #51a012; fill-opacity: 0.06;"></path><path transform="translate(104.16666666666667,0)" d="M0,13.81976597885342A13.81976597885342,13.81976597885342 0 1,1 0,-13.81976597885342A13.81976597885342,13.81976597885342 0 1,1 0,13.81976597885342Z" style="fill: #51a012; fill-opacity: 0.06;"></path><path transform="translate(305.77546296296293,0)" d="M0,13.81976597885342A13.81976597885342,13.81976597885342 0 1,1 0,-13.81976597885342A13.81976597885342,13.81976597885342 0 1,1 0,13.81976597885342Z" style="fill: #51a012; fill-opacity: 0.06;"></path><path transform="translate(148.34490740740742,0)" d="M0,13.81976597885342A13.81976597885342,13.81976597885342 0 1,1 0,-13.81976597885342A13.81976597885342,13.81976597885342 0 1,1 0,13.81976597885342Z" style="fill: #51a012; fill-opacity: 0.06;"></path><path transform="translate(281.25,0)" d="M0,13.81976597885342A13.81976597885342,13.81976597885342 0 1,1 0,-13.81976597885342A13.81976597885342,13.81976597885342 0 1,1 0,13.81976597885342Z" style="fill: #51a012; fill-opacity: 0.06;"></path><path transform="translate(209.79166666666666,0)" d="M0,13.81976597885342A13.81976597885342,13.81976597885342 0 1,1 0,-13.81976597885342A13.81976597885342,13.81976597885342 0 1,1 0,13.81976597885342Z" style="fill: #51a012; fill-opacity: 0.06;"></path><path transform="translate(331.8055555555556,0)" d="M0,13.81976597885342A13.81976597885342,13.81976597885342 0 1,1 0,-13.81976597885342A13.81976597885342,13.81976597885342 0 1,1 0,13.81976597885342Z" style="fill: #51a012; fill-opacity: 0.06;"></path><path transform="translate(134.94212962962962,0)" d="M0,13.81976597885342A13.81976597885342,13.81976597885342 0 1,1 0,-13.81976597885342A13.81976597885342,13.81976597885342 0 1,1 0,13.81976597885342Z" style="fill: #51a012; fill-opacity: 0.06;"></path><path transform="translate(237.82407407407408,0)" d="M0,13.81976597885342A13.81976597885342,13.81976597885342 0 1,1 0,-13.81976597885342A13.81976597885342,13.81976597885342 0 1,1 0,13.81976597885342Z" style="fill: #51a012; fill-opacity: 0.06;"></path><path transform="translate(380.85648148148147,0)" d="M0,13.81976597885342A13.81976597885342,13.81976597885342 0 1,1 0,-13.81976597885342A13.81976597885342,13.81976597885342 0 1,1 0,13.81976597885342Z" style="fill: #51a012; fill-opacity: 0.06;"></path><path transform="translate(87.12962962962963,0)" d="M0,13.81976597885342A13.81976597885342,13.81976597885342 0 1,1 0,-13.81976597885342A13.81976597885342,13.81976597885342 0 1,1 0,13.81976597885342Z" style="fill: #51a012; fill-opacity: 0.06;"></path><path transform="translate(299.2361111111111,0)" d="M0,13.81976597885342A13.81976597885342,13.81976597885342 0 1,1 0,-13.81976597885342A13.81976597885342,13.81976597885342 0 1,1 0,13.81976597885342Z" style="fill: #51a012; fill-opacity: 0.06;"></path><path transform="translate(199.46759259259258,0)" d="M0,13.81976597885342A13.81976597885342,13.81976597885342 0 1,1 0,-13.81976597885342A13.81976597885342,13.81976597885342 0 1,1 0,13.81976597885342Z" style="fill: #51a012; fill-opacity: 0.06;"></path><path transform="translate(333.75,0)" d="M0,13.81976597885342A13.81976597885342,13.81976597885342 0 1,1 0,-13.81976597885342A13.81976597885342,13.81976597885342 0 1,1 0,13.81976597885342Z" style="fill: #51a012; fill-opacity: 0.06;"></path><path transform="translate(104.79166666666666,0)" d="M0,13.81976597885342A13.81976597885342,13.81976597885342 0 1,1 0,-13.81976597885342A13.81976597885342,13.81976597885342 0 1,1 0,13.81976597885342Z" style="fill: #51a012; fill-opacity: 0.06;"></path><path transform="translate(310.5787037037037,0)" d="M0,13.81976597885342A13.81976597885342,13.81976597885342 0 1,1 0,-13.81976597885342A13.81976597885342,13.81976597885342 0 1,1 0,13.81976597885342Z" style="fill: #51a012; fill-opacity: 0.06;"></path><path transform="translate(127.08333333333333,0)" d="M0,13.81976597885342A13.81976597885342,13.81976597885342 0 1,1 0,-13.81976597885342A13.81976597885342,13.81976597885342 0 1,1 0,13.81976597885342Z" style="fill: #51a012; fill-opacity: 0.06;"></path><path transform="translate(161.27314814814812,0)" d="M0,13.81976597885342A13.81976597885342,13.81976597885342 0 1,1 0,-13.81976597885342A13.81976597885342,13.81976597885342 0 1,1 0,13.81976597885342Z" style="fill: #51a012; fill-opacity: 0.06;"></path><path transform="translate(304.35185185185185,0)" d="M0,13.81976597885342A13.81976597885342,13.81976597885342 0 1,1 0,-13.81976597885342A13.81976597885342,13.81976597885342 0 1,1 0,13.81976597885342Z" style="fill: #51a012; fill-opacity: 0.06;"></path><path transform="translate(372.4537037037037,0)" d="M0,13.81976597885342A13.81976597885342,13.81976597885342 0 1,1 0,-13.81976597885342A13.81976597885342,13.81976597885342 0 1,1 0,13.81976597885342Z" style="fill: #51a012; fill-opacity: 0.06;"></path><path transform="translate(183.37962962962962,0)" d="M0,13.81976597885342A13.81976597885342,13.81976597885342 0 1,1 0,-13.81976597885342A13.81976597885342,13.81976597885342 0 1,1 0,13.81976597885342Z" style="fill: #51a012; fill-opacity: 0.06;"></path><path transform="translate(133.59953703703704,0)" d="M0,13.81976597885342A13.81976597885342,13.81976597885342 0 1,1 0,-13.81976597885342A13.81976597885342,13.81976597885342 0 1,1 0,13.81976597885342Z" style="fill: #51a012; fill-opacity: 0.06;"></path><path transform="translate(99.14351851851852,0)" d="M0,13.81976597885342A13.81976597885342,13.81976597885342 0 1,1 0,-13.81976597885342A13.81976597885342,13.81976597885342 0 1,1 0,13.81976597885342Z" style="fill: #51a012; fill-opacity: 0.06;"></path><path transform="translate(413.4259259259259,0)" d="M0,13.81976597885342A13.81976597885342,13.81976597885342 0 1,1 0,-13.81976597885342A13.81976597885342,13.81976597885342 0 1,1 0,13.81976597885342Z" style="fill: #51a012; fill-opacity: 0.06;"></path><path transform="translate(140.28935185185185,0)" d="M0,13.81976597885342A13.81976597885342,13.81976597885342 0 1,1 0,-13.81976597885342A13.81976597885342,13.81976597885342 0 1,1 0,13.81976597885342Z" style="fill: #51a012; fill-opacity: 0.06;"></path><path transform="translate(89.6875,0)" d="M0,13.81976597885342A13.81976597885342,13.81976597885342 0 1,1 0,-13.81976597885342A13.81976597885342,13.81976597885342 0 1,1 0,13.81976597885342Z" style="fill: #51a012; fill-opacity: 0.06;"></path><path transform="translate(169.84953703703704,0)" d="M0,13.81976597885342A13.81976597885342,13.81976597885342 0 1,1 0,-13.81976597885342A13.81976597885342,13.81976597885342 0 1,1 0,13.81976597885342Z" style="fill: #51a012; fill-opacity: 0.06;"></path><path transform="translate(115.0925925925926,0)" d="M0,13.81976597885342A13.81976597885342,13.81976597885342 0 1,1 0,-13.81976597885342A13.81976597885342,13.81976597885342 0 1,1 0,13.81976597885342Z" style="fill: #51a012; fill-opacity: 0.06;"></path><path transform="translate(314.3287037037037,0)" d="M0,13.81976597885342A13.81976597885342,13.81976597885342 0 1,1 0,-13.81976597885342A13.81976597885342,13.81976597885342 0 1,1 0,13.81976597885342Z" style="fill: #51a012; fill-opacity: 0.06;"></path><path transform="translate(185.74074074074073,0)" d="M0,13.81976597885342A13.81976597885342,13.81976597885342 0 1,1 0,-13.81976597885342A13.81976597885342,13.81976597885342 0 1,1 0,13.81976597885342Z" style="fill: #51a012; fill-opacity: 0.06;"></path><path transform="translate(354.1666666666667,0)" d="M0,13.81976597885342A13.81976597885342,13.81976597885342 0 1,1 0,-13.81976597885342A13.81976597885342,13.81976597885342 0 1,1 0,13.81976597885342Z" style="fill: #51a012; fill-opacity: 0.06;"></path><path transform="translate(133.47222222222223,0)" d="M0,13.81976597885342A13.81976597885342,13.81976597885342 0 1,1 0,-13.81976597885342A13.81976597885342,13.81976597885342 0 1,1 0,13.81976597885342Z" style="fill: #51a012; fill-opacity: 0.06;"></path><path transform="translate(156.25,0)" d="M0,13.81976597885342A13.81976597885342,13.81976597885342 0 1,1 0,-13.81976597885342A13.81976597885342,13.81976597885342 0 1,1 0,13.81976597885342Z" style="fill: #51a012; fill-opacity: 0.06;"></path><path transform="translate(89.17824074074073,0)" d="M0,13.81976597885342A13.81976597885342,13.81976597885342 0 1,1 0,-13.81976597885342A13.81976597885342,13.81976597885342 0 1,1 0,13.81976597885342Z" style="fill: #51a012; fill-opacity: 0.06;"></path><path transform="translate(428.5648148148148,0)" d="M0,13.81976597885342A13.81976597885342,13.81976597885342 0 1,1 0,-13.81976597885342A13.81976597885342,13.81976597885342 0 1,1 0,13.81976597885342Z" style="fill: #51a012; fill-opacity: 0.06;"></path><path transform="translate(116.1574074074074,0)" d="M0,13.81976597885342A13.81976597885342,13.81976597885342 0 1,1 0,-13.81976597885342A13.81976597885342,13.81976597885342 0 1,1 0,13.81976597885342Z" style="fill: #51a012; fill-opacity: 0.06;"></path><path transform="translate(145.83333333333334,0)" d="M0,13.81976597885342A13.81976597885342,13.81976597885342 0 1,1 0,-13.81976597885342A13.81976597885342,13.81976597885342 0 1,1 0,13.81976597885342Z" style="fill: #51a012; fill-opacity: 0.06;"></path><path transform="translate(465.27777777777777,0)" d="M0,13.81976597885342A13.81976597885342,13.81976597885342 0 1,1 0,-13.81976597885342A13.81976597885342,13.81976597885342 0 1,1 0,13.81976597885342Z" style="fill: #51a012; fill-opacity: 0.06;"></path><path transform="translate(116.4236111111111,0)" d="M0,13.81976597885342A13.81976597885342,13.81976597885342 0 1,1 0,-13.81976597885342A13.81976597885342,13.81976597885342 0 1,1 0,13.81976597885342Z" style="fill: #51a012; fill-opacity: 0.06;"></path><path transform="translate(226.05324074074073,0)" d="M0,13.81976597885342A13.81976597885342,13.81976597885342 0 1,1 0,-13.81976597885342A13.81976597885342,13.81976597885342 0 1,1 0,13.81976597885342Z" style="fill: #51a012; fill-opacity: 0.06;"></path><path transform="translate(458.3333333333333,0)" d="M0,13.81976597885342A13.81976597885342,13.81976597885342 0 1,1 0,-13.81976597885342A13.81976597885342,13.81976597885342 0 1,1 0,13.81976597885342Z" style="fill: #51a012; fill-opacity: 0.06;"></path><path transform="translate(32.37268518518518,0)" d="M0,13.81976597885342A13.81976597885342,13.81976597885342 0 1,1 0,-13.81976597885342A13.81976597885342,13.81976597885342 0 1,1 0,13.81976597885342Z" style="fill: #51a012; fill-opacity: 0.06;"></path><path transform="translate(126.06481481481482,0)" d="M0,13.81976597885342A13.81976597885342,13.81976597885342 0 1,1 0,-13.81976597885342A13.81976597885342,13.81976597885342 0 1,1 0,13.81976597885342Z" style="fill: #51a012; fill-opacity: 0.06;"></path><path transform="translate(240.25462962962962,0)" d="M0,13.81976597885342A13.81976597885342,13.81976597885342 0 1,1 0,-13.81976597885342A13.81976597885342,13.81976597885342 0 1,1 0,13.81976597885342Z" style="fill: #51a012; fill-opacity: 0.06;"></path><path transform="translate(463.68055555555554,0)" d="M0,13.81976597885342A13.81976597885342,13.81976597885342 0 1,1 0,-13.81976597885342A13.81976597885342,13.81976597885342 0 1,1 0,13.81976597885342Z" style="fill: #51a012; fill-opacity: 0.06;"></path><path transform="translate(110.5324074074074,0)" d="M0,13.81976597885342A13.81976597885342,13.81976597885342 0 1,1 0,-13.81976597885342A13.81976597885342,13.81976597885342 0 1,1 0,13.81976597885342Z" style="fill: #51a012; fill-opacity: 0.06;"></path><path transform="translate(158.96990740740742,0)" d="M0,13.81976597885342A13.81976597885342,13.81976597885342 0 1,1 0,-13.81976597885342A13.81976597885342,13.81976597885342 0 1,1 0,13.81976597885342Z" style="fill: #51a012; fill-opacity: 0.06;"></path><path transform="translate(398.0208333333333,0)" d="M0,13.81976597885342A13.81976597885342,13.81976597885342 0 1,1 0,-13.81976597885342A13.81976597885342,13.81976597885342 0 1,1 0,13.81976597885342Z" style="fill: #51a012; fill-opacity: 0.06;"></path><path transform="translate(52.083333333333336,0)" d="M0,13.81976597885342A13.81976597885342,13.81976597885342 0 1,1 0,-13.81976597885342A13.81976597885342,13.81976597885342 0 1,1 0,13.81976597885342Z" style="fill: #51a012; fill-opacity: 0.06;"></path><path transform="translate(166.59722222222223,0)" d="M0,13.81976597885342A13.81976597885342,13.81976597885342 0 1,1 0,-13.81976597885342A13.81976597885342,13.81976597885342 0 1,1 0,13.81976597885342Z" style="fill: #51a012; fill-opacity: 0.06;"></path><path transform="translate(292.90509259259255,0)" d="M0,13.81976597885342A13.81976597885342,13.81976597885342 0 1,1 0,-13.81976597885342A13.81976597885342,13.81976597885342 0 1,1 0,13.81976597885342Z" style="fill: #51a012; fill-opacity: 0.06;"></path><path transform="translate(261.9444444444444,0)" d="M0,13.81976597885342A13.81976597885342,13.81976597885342 0 1,1 0,-13.81976597885342A13.81976597885342,13.81976597885342 0 1,1 0,13.81976597885342Z" style="fill: #51a012; fill-opacity: 0.06;"></path><path transform="translate(305.787037037037,0)" d="M0,13.81976597885342A13.81976597885342,13.81976597885342 0 1,1 0,-13.81976597885342A13.81976597885342,13.81976597885342 0 1,1 0,13.81976597885342Z" style="fill: #51a012; fill-opacity: 0.06;"></path><path transform="translate(231.40046296296296,0)" d="M0,13.81976597885342A13.81976597885342,13.81976597885342 0 1,1 0,-13.81976597885342A13.81976597885342,13.81976597885342 0 1,1 0,13.81976597885342Z" style="fill: #51a012; fill-opacity: 0.06;"></path><path transform="translate(306.24999999999994,0)" d="M0,13.81976597885342A13.81976597885342,13.81976597885342 0 1,1 0,-13.81976597885342A13.81976597885342,13.81976597885342 0 1,1 0,13.81976597885342Z" style="fill: #51a012; fill-opacity: 0.06;"></path><path transform="translate(274.6180555555556,0)" d="M0,13.81976597885342A13.81976597885342,13.81976597885342 0 1,1 0,-13.81976597885342A13.81976597885342,13.81976597885342 0 1,1 0,13.81976597885342Z" style="fill: #51a012; fill-opacity: 0.06;"></path><path transform="translate(338.0208333333333,0)" d="M0,13.81976597885342A13.81976597885342,13.81976597885342 0 1,1 0,-13.81976597885342A13.81976597885342,13.81976597885342 0 1,1 0,13.81976597885342Z" style="fill: #51a012; fill-opacity: 0.06;"></path><path transform="translate(127.92824074074075,0)" d="M0,13.81976597885342A13.81976597885342,13.81976597885342 0 1,1 0,-13.81976597885342A13.81976597885342,13.81976597885342 0 1,1 0,13.81976597885342Z" style="fill: #51a012; fill-opacity: 0.06;"></path><path transform="translate(150.77546296296296,0)" d="M0,13.81976597885342A13.81976597885342,13.81976597885342 0 1,1 0,-13.81976597885342A13.81976597885342,13.81976597885342 0 1,1 0,13.81976597885342Z" style="fill: #51a012; fill-opacity: 0.06;"></path><path transform="translate(79.10879629629629,0)" d="M0,13.81976597885342A13.81976597885342,13.81976597885342 0 1,1 0,-13.81976597885342A13.81976597885342,13.81976597885342 0 1,1 0,13.81976597885342Z" style="fill: #51a012; fill-opacity: 0.06;"></path><path transform="translate(196.6898148148148,0)" d="M0,13.81976597885342A13.81976597885342,13.81976597885342 0 1,1 0,-13.81976597885342A13.81976597885342,13.81976597885342 0 1,1 0,13.81976597885342Z" style="fill: #51a012; fill-opacity: 0.06;"></path><path transform="translate(209.00462962962962,0)" d="M0,13.81976597885342A13.81976597885342,13.81976597885342 0 1,1 0,-13.81976597885342A13.81976597885342,13.81976597885342 0 1,1 0,13.81976597885342Z" style="fill: #51a012; fill-opacity: 0.06;"></path><path transform="translate(352.4421296296296,0)" d="M0,13.81976597885342A13.81976597885342,13.81976597885342 0 1,1 0,-13.81976597885342A13.81976597885342,13.81976597885342 0 1,1 0,13.81976597885342Z" style="fill: #51a012; fill-opacity: 0.06;"></path><path transform="translate(140.02314814814815,0)" d="M0,13.81976597885342A13.81976597885342,13.81976597885342 0 1,1 0,-13.81976597885342A13.81976597885342,13.81976597885342 0 1,1 0,13.81976597885342Z" style="fill: #51a012; fill-opacity: 0.06;"></path><path transform="translate(110.27777777777779,0)" d="M0,13.81976597885342A13.81976597885342,13.81976597885342 0 1,1 0,-13.81976597885342A13.81976597885342,13.81976597885342 0 1,1 0,13.81976597885342Z" style="fill: #51a012; fill-opacity: 0.06;"></path><path transform="translate(142.76620370370372,0)" d="M0,13.81976597885342A13.81976597885342,13.81976597885342 0 1,1 0,-13.81976597885342A13.81976597885342,13.81976597885342 0 1,1 0,13.81976597885342Z" style="fill: #51a012; fill-opacity: 0.06;"></path><path transform="translate(333.3333333333333,0)" d="M0,13.81976597885342A13.81976597885342,13.81976597885342 0 1,1 0,-13.81976597885342A13.81976597885342,13.81976597885342 0 1,1 0,13.81976597885342Z" style="fill: #51a012; fill-opacity: 0.06;"></path><path transform="translate(145.83333333333334,0)" d="M0,13.81976597885342A13.81976597885342,13.81976597885342 0 1,1 0,-13.81976597885342A13.81976597885342,13.81976597885342 0 1,1 0,13.81976597885342Z" style="fill: #51a012; fill-opacity: 0.06;"></path><path transform="translate(146.96759259259258,0)" d="M0,13.81976597885342A13.81976597885342,13.81976597885342 0 1,1 0,-13.81976597885342A13.81976597885342,13.81976597885342 0 1,1 0,13.81976597885342Z" style="fill: #51a012; fill-opacity: 0.06;"></path><path transform="translate(274.4212962962963,0)" d="M0,13.81976597885342A13.81976597885342,13.81976597885342 0 1,1 0,-13.81976597885342A13.81976597885342,13.81976597885342 0 1,1 0,13.81976597885342Z" style="fill: #51a012; fill-opacity: 0.06;"></path><path transform="translate(250,0)" d="M0,13.81976597885342A13.81976597885342,13.81976597885342 0 1,1 0,-13.81976597885342A13.81976597885342,13.81976597885342 0 1,1 0,13.81976597885342Z" style="fill: #51a012; fill-opacity: 0.06;"></path><path transform="translate(282.63888888888886,0)" d="M0,13.81976597885342A13.81976597885342,13.81976597885342 0 1,1 0,-13.81976597885342A13.81976597885342,13.81976597885342 0 1,1 0,13.81976597885342Z" style="fill: #51a012; fill-opacity: 0.06;"></path></g><g id="g12"><g transform="translate(0,20)"><rect class="background" style="pointer-events: none; fill: none;" width="0" height="0"></rect><g id="g13" style="pointer-events: none;"></g><g id="g14" style="pointer-events: none;"><line x1="0.5" y1="0" x2="0.5" y2="6" style="fill: none; stroke: #000; stroke-width: 1; opacity: 1;"></line><line x1="42.166666666666664" y1="0" x2="42.166666666666664" y2="6" style="fill: none; stroke: #000; stroke-width: 1; opacity: 1;"></line><line x1="83.83333333333333" y1="0" x2="83.83333333333333" y2="6" style="fill: none; stroke: #000; stroke-width: 1; opacity: 1;"></line><line x1="125.5" y1="0" x2="125.5" y2="6" style="fill: none; stroke: #000; stroke-width: 1; opacity: 1;"></line><line x1="167.16666666666666" y1="0" x2="167.16666666666666" y2="6" style="fill: none; stroke: #000; stroke-width: 1; opacity: 1;"></line><line x1="208.83333333333334" y1="0" x2="208.83333333333334" y2="6" style="fill: none; stroke: #000; stroke-width: 1; opacity: 1;"></line><line x1="250.5" y1="0" x2="250.5" y2="6" style="fill: none; stroke: #000; stroke-width: 1; opacity: 1;"></line><line x1="292.1666666666667" y1="0" x2="292.1666666666667" y2="6" style="fill: none; stroke: #000; stroke-width: 1; opacity: 1;"></line><line x1="333.8333333333333" y1="0" x2="333.8333333333333" y2="6" style="fill: none; stroke: #000; stroke-width: 1; opacity: 1;"></line><line x1="375.5" y1="0" x2="375.5" y2="6" style="fill: none; stroke: #000; stroke-width: 1; opacity: 1;"></line><line x1="417.1666666666667" y1="0" x2="417.1666666666667" y2="6" style="fill: none; stroke: #000; stroke-width: 1; opacity: 1;"></line><line x1="458.8333333333333" y1="0" x2="458.8333333333333" y2="6" style="fill: none; stroke: #000; stroke-width: 1; opacity: 1;"></line><line x1="500.5" y1="0" x2="500.5" y2="6" style="fill: none; stroke: #000; stroke-width: 1; opacity: 1;"></line></g><g id="g15" style="pointer-events: none;"></g><g id="g16" style=""><text x="0.5" y="9" dy=".9em" text-anchor="middle" style="font: 11px sans-serif; fill: #000; opacity: 1;">07 AM</text><text x="42.166666666666664" y="9" dy=".9em" text-anchor="middle" style="font: 11px sans-serif; fill: #000; opacity: 1;">08 AM</text><text x="83.83333333333333" y="9" dy=".9em" text-anchor="middle" style="font: 11px sans-serif; fill: #000; opacity: 1;">09 AM</text><text x="125.5" y="9" dy=".9em" text-anchor="middle" style="font: 11px sans-serif; fill: #000; opacity: 1;">10 AM</text><text x="167.16666666666666" y="9" dy=".9em" text-anchor="middle" style="font: 11px sans-serif; fill: #000; opacity: 1;">11 AM</text><text x="208.83333333333334" y="9" dy=".9em" text-anchor="middle" style="font: 11px sans-serif; fill: #000; opacity: 1;">12 PM</text><text x="250.5" y="9" dy=".9em" text-anchor="middle" style="font: 11px sans-serif; fill: #000; opacity: 1;">01 PM</text><text x="292.1666666666667" y="9" dy=".9em" text-anchor="middle" style="font: 11px sans-serif; fill: #000; opacity: 1;">02 PM</text><text x="333.8333333333333" y="9" dy=".9em" text-anchor="middle" style="font: 11px sans-serif; fill: #000; opacity: 1;">03 PM</text><text x="375.5" y="9" dy=".9em" text-anchor="middle" style="font: 11px sans-serif; fill: #000; opacity: 1;">04 PM</text><text x="417.1666666666667" y="9" dy=".9em" text-anchor="middle" style="font: 11px sans-serif; fill: #000; opacity: 1;">05 PM</text><text x="458.8333333333333" y="9" dy=".9em" text-anchor="middle" style="font: 11px sans-serif; fill: #000; opacity: 1;">06 PM</text><text x="500.5" y="9" dy=".9em" text-anchor="middle" style="font: 11px sans-serif; fill: #000; opacity: 1;">07 PM</text></g><g id="g17" style="pointer-events: none;"><path transform="translate(0.5,0.5)" d="M0,6V0H500V6" style="fill: none; stroke: #000; stroke-width: 1;"></path></g><g id="g18" style=""></g></g></g></g></g></g></svg>