<svg width="299" height="170" version="1.1" xmlns="http://www.w3.org/2000/svg" xmlns:xlink="http://www.w3.org/1999/xlink"><g transform="translate(0,0)"><g id="g7"><g transform="translate(0,0)"><rect class="background" style="pointer-events: none; fill: none;" width="170" height="170"></rect><g id="g8" style=""><path transform="translate(85,85)" d="M-50.95134634679112,61.676253983598386A80,80 0 0,1 -1.4695276245868527e-14,-80L-3.673819061467132e-15,-20A20,20 0 0,0 -12.73783658669778,15.419063495899596Z" style="fill: #1f77b4;"></path><path transform="translate(85,85)" d="M39.60070284668652,69.51103749800052A80,80 0 0,1 -50.95134634679112,61.676253983598386L-12.73783658669778,15.419063495899596A20,20 0 0,0 9.90017571167163,17.37775937450013Z" style="fill: #ff7f0e;"></path><path transform="translate(85,85)" d="M79.8927586144365,4.140908230736737A80,80 0 0,1 39.60070284668652,69.51103749800052L9.90017571167163,17.37775937450013A20,20 0 0,0 19.973189653609126,1.0352270576841842Z" style="fill: #2ca02c;"></path><path transform="translate(85,85)" d="M70.18421553595536,-38.39499823678291A80,80 0 0,1 79.8927586144365,4.140908230736737L19.973189653609126,1.0352270576841842A20,20 0 0,0 17.54605388398884,-9.598749559195728Z" style="fill: #d62728;"></path><path transform="translate(85,85)" d="M55.08505850746217,-58.014104571470114A80,80 0 0,1 70.18421553595536,-38.39499823678291L17.54605388398884,-9.598749559195728A20,20 0 0,0 13.771264626865543,-14.503526142867528Z" style="fill: #9467bd;"></path><path transform="translate(85,85)" d="M37.17785376350149,-70.8364820522568A80,80 0 0,1 55.08505850746217,-58.014104571470114L13.771264626865543,-14.503526142867528A20,20 0 0,0 9.294463440875372,-17.7091205130642Z" style="fill: #8c564b;"></path><path transform="translate(85,85)" d="M21.814898279159507,-76.96824158748804A80,80 0 0,1 37.17785376350149,-70.8364820522568L9.294463440875372,-17.7091205130642A20,20 0 0,0 5.453724569789877,-19.24206039687201Z" style="fill: #e377c2;"></path><path transform="translate(85,85)" d="M8.270714543069625,-79.57132197561542A80,80 0 0,1 21.814898279159507,-76.96824158748804L5.453724569789877,-19.24206039687201A20,20 0 0,0 2.067678635767406,-19.892830493903855Z" style="fill: #7f7f7f;"></path><path transform="translate(85,85)" d="M4.898425415289509e-15,-80A80,80 0 0,1 8.270714543069625,-79.57132197561542L2.067678635767406,-19.892830493903855A20,20 0 0,0 1.2246063538223773e-15,-20Z" style="fill: #bcbd22;"></path></g><g id="g9"><g transform="translate(175.5,0.5)"><rect class="background" style="pointer-events: none; fill: none;" width="118" height="138"></rect><g id="g10" style="pointer-events: none;"></g><g id="g11" style="pointer-events: none;"><path transform="translate(7.5,7)" d="M0,3.989422804014327A3.989422804014327,3.989422804014327 0 1,1 0,-3.989422804014327A3.989422804014327,3.989422804014327 0 1,1 0,3.989422804014327Z" style="fill: #1f77b4; stroke: #888; stroke-width: 1; opacity: 1;"></path><path transform="translate(7.5,22)" d="M0,3.989422804014327A3.989422804014327,3.989422804014327 0 1,1 0,-3.989422804014327A3.989422804014327,3.989422804014327 0 1,1 0,3.989422804014327Z" style="fill: #ff7f0e; stroke: #888; stroke-width: 1; opacity: 1;"></path><path transform="translate(7.5,37)" d="M0,3.989422804014327A3.989422804014327,3.989422804014327 0 1,1 0,-3.989422804014327A3.989422804014327,3.989422804014327 0 1,1 0,3.989422804014327Z" style="fill: #2ca02c; stroke: #888; stroke-width: 1; opacity: 1;"></path><path transform="translate(7.5,52)" d="M0,3.989422804014327A3.989422804014327,3.989422804014327 0 1,1 0,-3.989422804014327A3.989422804014327,3.989422804014327 0 1,1 0,3.989422804014327Z" style="fill: #d62728; stroke: #888; stroke-width: 1; opacity: 1;"></path><path transform="translate(7.5,67)" d="M0,3.989422804014327A3.989422804014327,3.989422804014327 0 1,1 0,-3.989422804014327A3.989422804014327,3.989422804014327 0 1,1 0,3.989422804014327Z" style="fill: #9467bd; stroke: #888; stroke-width: 1; opacity: 1;"></path><path transform="translate(7.5,82)" d="M0,3.989422804014327A3.989422804014327,3.989422804014327 0 1,1 0,-3.989422804014327A3.989422804014327,3.989422804014327 0 1,1 0,3.989422804014327Z" style="fill: #8c564b; stroke: #888; stroke-width: 1; opacity: 1;"></path><path transform="translate(7.5,97)" d="M0,3.989422804014327A3.989422804014327,3.989422804014327 0 1,1 0,-3.989422804014327A3.989422804014327,3.989422804014327 0 1,1 0,3.989422804014327Z" style="fill: #e377c2; stroke: #888; stroke-width: 1; opacity: 1;"></path><path transform="translate(7.5,112)" d="M0,3.989422804014327A3.989422804014327,3.989422804014327 0 1,1 0,-3.989422804014327A3.989422804014327,3.989422804014327 0 1,1 0,3.989422804014327Z" style="fill: #7f7f7f; stroke: #888; stroke-width: 1; opacity: 1;"></path><path transform="translate(7.5,127)" d="M0,3.989422804014327A3.989422804014327,3.989422804014327 0 1,1 0,-3.989422804014327A3.989422804014327,3.989422804014327 0 1,1 0,3.989422804014327Z" style="fill: #bcbd22; stroke: #888; stroke-width: 1; opacity: 1;"></path></g><g id="g12" style="pointer-events: none;"><text x="16" y="7" dy=".35em" text-anchor="start" style="font: 10px sans-serif; fill: #000; opacity: 1;">work</text><text x="16" y="22" dy=".35em" text-anchor="start" style="font: 10px sans-serif; fill: #000; opacity: 1;">home</text><text x="16" y="37" dy=".35em" text-anchor="start" style="font: 10px sans-serif; fill: #000; opacity: 1;">travel</text><text x="16" y="52" dy=".35em" text-anchor="start" style="font: 10px sans-serif; fill: #000; opacity: 1;">other Seattle café</text><text x="16" y="67" dy=".35em" text-anchor="start" style="font: 10px sans-serif; fill: #000; opacity: 1;">Trabant</text><text x="16" y="82" dy=".35em" text-anchor="start" style="font: 10px sans-serif; fill: #000; opacity: 1;">Neptune</text><text x="16" y="97" dy=".35em" text-anchor="start" style="font: 10px sans-serif; fill: #000; opacity: 1;">Herkimer</text><text x="16" y="112" dy=".35em" text-anchor="start" style="font: 10px sans-serif; fill: #000; opacity: 1;">espresso room</text><text x="16" y="127" dy=".35em" text-anchor="start" style="font: 10px sans-serif; fill: #000; opacity: 1;">friend</text></g></g></g></g></g></g></svg>