<?xml version="1.0" encoding="UTF-8" standalone="no"?>
<!-- Created with Inkscape (http://www.inkscape.org/) -->

<svg
   xmlns:dc="http://purl.org/dc/elements/1.1/"
   xmlns:cc="http://creativecommons.org/ns#"
   xmlns:rdf="http://www.w3.org/1999/02/22-rdf-syntax-ns#"
   xmlns:svg="http://www.w3.org/2000/svg"
   xmlns="http://www.w3.org/2000/svg"
   xmlns:inkscape="http://www.inkscape.org/namespaces/inkscape"
   version="1.1"
   width="1028.75"
   height="171.25"
   id="svg2"
   xml:space="preserve"><metadata
     id="metadata8"><rdf:RDF><cc:Work
         rdf:about=""><dc:format>image/svg+xml</dc:format><dc:type
           rdf:resource="http://purl.org/dc/dcmitype/StillImage" /></cc:Work></rdf:RDF></metadata><defs
     id="defs6" /><g
     transform="matrix(1.25,0,0,-1.25,0,171.25)"
     id="g10"><g
       id="g12" /><g
       id="g14"><path
         d="M 0,0 823,0 823,137 0,137 0,0 z"
         inkscape:connector-curvature="0"
         id="path16"
         style="fill:#ffffff;fill-opacity:1;fill-rule:nonzero;stroke:none" /><path
         d="M 83.60938,123 156.0484,28 228.4875,28 83.60938,123 z"
         inkscape:connector-curvature="0"
         id="path18"
         style="fill:#74b5ff;fill-opacity:0.5;fill-rule:nonzero;stroke:none" /><path
         d="m 83.60938,123 144.87812,0 0,-95 -144.87812,-0.98959 0,95.98959 z"
         inkscape:connector-curvature="0"
         id="path20"
         style="fill:#61ac17;fill-opacity:1;fill-rule:nonzero;stroke:none" /><path
         d="M 82.25938,28 809.35,28 m -652.85,6 0,-10 m 72,10 0,-10 m 72,10 0,-10 m 73,10 0,-10 m 72,10 0,-10 m 73,10 0,-10 m 72,10 0,-10 m 73,10 0,-10 m 72,10 0,-10"
         inkscape:connector-curvature="0"
         id="path22"
         style="fill:none;stroke:#000000;stroke-width:3;stroke-linecap:butt;stroke-linejoin:miter;stroke-miterlimit:10;stroke-opacity:1;stroke-dasharray:none" /><path
         d="m 817,28 -18,9 9,-9 -9,-9 18,9 z"
         inkscape:connector-curvature="0"
         id="path24"
         style="fill:#000000;fill-opacity:1;fill-rule:nonzero;stroke:none" /><path
         d="m 83.60938,26.65 0,97.7 m 6,-95.85 -10,0 m 7,9 -5,0 m 5,10 -5,0 m 5,9 -5,0 m 5,10 -5,0 m 8,9 -10,0 m 7,10 -5,0 m 5,9 -5,0 m 5,10 -5,0 m 5,9 -5,0 m 8,10 -10,0"
         inkscape:connector-curvature="0"
         id="path26"
         style="fill:none;stroke:#000000;stroke-width:3;stroke-linecap:butt;stroke-linejoin:miter;stroke-miterlimit:10;stroke-opacity:1;stroke-dasharray:none" /><text
         transform="matrix(1,0,0,-1,432.8818,9)"
         id="text28"><tspan
           x="0 4.4879999 7.9572001 19.1604"
           y="0"
           id="tspan30"
           style="font-size:12px;font-variant:normal;font-weight:normal;writing-mode:lr-tb;fill:#000000;fill-opacity:1;fill-rule:nonzero;stroke:none;font-family:LucidaGrande;-inkscape-font-specification:LucidaGrande">time</tspan></text>
<text
         transform="matrix(1,0,0,-1,6,118)"
         id="text32"><tspan
           x="0 3.4691999 10.8408 15.3288 21.4464 25.2432 32.614799 37.027199 40.824001 47.509201 52.419601 57.330002 64.701599"
           y="0"
           id="tspan34"
           style="font-size:12px;font-variant:normal;font-weight:normal;writing-mode:lr-tb;fill:#000000;fill-opacity:1;fill-rule:nonzero;stroke:none;font-family:LucidaGrande;-inkscape-font-specification:LucidaGrande">lots of error</tspan></text>
<text
         transform="matrix(1,0,0,-1,28.20703,23)"
         id="text36"><tspan
           x="0 7.4471998 14.8224 18.621599 25.312799 30.228001 35.1432 42.518398"
           y="0"
           id="tspan38"
           style="font-size:12px;font-variant:normal;font-weight:normal;writing-mode:lr-tb;fill:#000000;fill-opacity:1;fill-rule:nonzero;stroke:none;font-family:LucidaGrande;-inkscape-font-specification:LucidaGrande">no error</tspan></text>
<path
         d="m 83.60938,27.01041 c 0,0 4.62522,5.78802 15.21484,10.48959 10.58958,4.70157 27.17588,8.33229 37.41798,11.67904 10.2421,3.34675 14.1909,6.41852 19.4492,6.80516 5.2583,0.38664 11.8902,-1.89628 15.6289,0.5158 3.7387,2.41208 4.6509,9.53414 9.2266,9.5 4.5756,-0.03414 12.8824,-7.21819 20.8086,-9.5 7.9261,-2.28181 15.5444,0.34374 25.6875,5.22518 10.143,4.88145 22.8952,12.02974 28.7343,11.39851 5.8391,-0.63123 4.8551,-9.02806 9.2696,-10.14926 4.4145,-1.1212 14.3142,5.04153 18.414,7.89374 4.0999,2.85221 2.4763,2.40541 9.4063,1.99818 6.9299,-0.40723 22.4887,-0.76923 30.4297,0.62989 7.9409,1.39912 8.3476,4.5618 12.6328,2.00376 4.2852,-2.55804 12.5458,-10.83027 18.8984,-9.5 6.3527,1.33027 10.8875,12.27592 20.6289,14.11236 9.7415,1.83644 24.7773,-5.42946 31.7598,-3.8836 6.9825,1.54586 6.0044,11.91484 9.8145,13.73039 3.81,1.81554 12.4979,-4.91314 16.6757,-5.4599 4.1779,-0.54676 3.946,5.09855 16.6758,4.1044 12.7298,-0.99415 38.5286,-8.62112 50.0703,-7.57504 11.5418,1.04608 8.9343,10.77097 14.5391,13.02276 5.6047,2.25179 19.5282,-2.96157 31.6465,-3.41384 12.1182,-0.45227 22.5384,3.86392 28.2441,3.97473 5.7057,0.11082 6.7901,-3.97189 11.3125,-3.58045 4.5224,0.39144 12.5729,5.26311 21.9453,7.25525 9.3725,1.99214 20.1603,1.1111 28.1758,2.52474 8.0155,1.4137 13.3543,5.1283 19.1328,4.4798 5.7786,-0.6486 12.0734,-5.64882 16.1914,-6.1786 4.118,-0.52979 6.1348,3.4139 8.1094,4.887 1.9746,1.4731 3.9746,0.4804 7.9258,0 3.9511,-0.4804 9.9157,-0.4485 15.2226,-1.0232 5.3069,-0.5748 10.0226,-1.7507 19.7657,-2.4112 9.743,-0.66052 24.5836,-0.80048 33.8203,2.2781 9.2367,3.0787 12.9287,9.3835 18.5859,10.6563 5.6572,1.2728 13.3261,-2.4794 17.3887,-0.9162 4.0626,1.5631 4.5449,8.4489 4.5449,8.4489"
         inkscape:connector-curvature="0"
         id="path40"
         style="fill:none;stroke:#000000;stroke-width:2;stroke-linecap:round;stroke-linejoin:miter;stroke-miterlimit:10;stroke-opacity:1;stroke-dasharray:none" /><text
         transform="matrix(1,0,0,-1,114.8497,100.8319)"
         id="text42"><tspan
           x="0 7.2954001 17.848801 28.0242 35.319599 41.247002 48.5424 54.3978 71.8452"
           y="0"
           id="tspan44"
           style="font-size:18px;font-variant:normal;font-weight:bold;writing-mode:lr-tb;fill:#ffffff;fill-opacity:1;fill-rule:nonzero;stroke:none;font-family:LucidaGrande;-inkscape-font-specification:LucidaGrande-Bold">test time</tspan></text>
<text
         transform="matrix(1,0,0,-1,505.257,100.7148)"
         id="text46"><tspan
           x="0 8.1828003 20.0016 31.8204 37.753201 45.054001 50.914799 68.367599"
           y="0"
           id="tspan48"
           style="font-size:18px;font-variant:normal;font-weight:bold;writing-mode:lr-tb;fill:#61ac17;fill-opacity:1;fill-rule:nonzero;stroke:none;font-family:LucidaGrande;-inkscape-font-specification:LucidaGrande-Bold">run time</tspan></text>
</g></g></svg>