<?xml version="1.0" encoding="UTF-8" standalone="no"?>
<!-- Created with Inkscape (http://www.inkscape.org/) -->

<svg
   xmlns:dc="http://purl.org/dc/elements/1.1/"
   xmlns:cc="http://creativecommons.org/ns#"
   xmlns:rdf="http://www.w3.org/1999/02/22-rdf-syntax-ns#"
   xmlns:svg="http://www.w3.org/2000/svg"
   xmlns="http://www.w3.org/2000/svg"
   xmlns:inkscape="http://www.inkscape.org/namespaces/inkscape"
   version="1.1"
   width="1028.75"
   height="171.25"
   id="svg2"
   xml:space="preserve"><metadata
     id="metadata8"><rdf:RDF><cc:Work
         rdf:about=""><dc:format>image/svg+xml</dc:format><dc:type
           rdf:resource="http://purl.org/dc/dcmitype/StillImage" /></cc:Work></rdf:RDF></metadata><defs
     id="defs6" /><g
     transform="matrix(1.25,0,0,-1.25,0,171.25)"
     id="g10"><g
       id="g12" /><g
       id="g14"><path
         d="M 0,0 823,0 823,137 0,137 0,0 z"
         inkscape:connector-curvature="0"
         id="path16"
         style="fill:#ffffff;fill-opacity:1;fill-rule:nonzero;stroke:none" /><path
         d="M 83.60938,123 156.0484,28 228.4875,28 83.60938,123 z"
         inkscape:connector-curvature="0"
         id="path18"
         style="fill:#74b5ff;fill-opacity:0.5;fill-rule:nonzero;stroke:none" /><path
         d="m 83.60938,123 144.87812,0 0,-95 -144.87812,0 0,95 z"
         inkscape:connector-curvature="0"
         id="path20"
         style="fill:#61ac17;fill-opacity:1;fill-rule:nonzero;stroke:none" /><path
         d="M 82.25938,28 809.35,28 m -652.85,6 0,-10 m 72,10 0,-10 m 72,10 0,-10 m 73,10 0,-10 m 72,10 0,-10 m 73,10 0,-10 m 72,10 0,-10 m 73,10 0,-10 m 72,10 0,-10"
         inkscape:connector-curvature="0"
         id="path22"
         style="fill:none;stroke:#000000;stroke-width:3;stroke-linecap:butt;stroke-linejoin:miter;stroke-miterlimit:10;stroke-opacity:1;stroke-dasharray:none" /><path
         d="m 817,28 -18,9 9,-9 -9,-9 18,9 z"
         inkscape:connector-curvature="0"
         id="path24"
         style="fill:#000000;fill-opacity:1;fill-rule:nonzero;stroke:none" /><path
         d="m 83.60938,26.65 0,97.7 m 6,-95.85 -10,0 m 7,9 -5,0 m 5,10 -5,0 m 5,9 -5,0 m 5,10 -5,0 m 8,9 -10,0 m 7,10 -5,0 m 5,9 -5,0 m 5,10 -5,0 m 5,9 -5,0 m 8,10 -10,0"
         inkscape:connector-curvature="0"
         id="path26"
         style="fill:none;stroke:#000000;stroke-width:3;stroke-linecap:butt;stroke-linejoin:miter;stroke-miterlimit:10;stroke-opacity:1;stroke-dasharray:none" /><text
         transform="matrix(1,0,0,-1,432.8818,9)"
         id="text28"><tspan
           x="0 4.4879999 7.9572001 19.1604"
           y="0"
           id="tspan30"
           style="font-size:12px;font-variant:normal;font-weight:normal;writing-mode:lr-tb;fill:#000000;fill-opacity:1;fill-rule:nonzero;stroke:none;font-family:LucidaGrande;-inkscape-font-specification:LucidaGrande">time</tspan></text>
<text
         transform="matrix(1,0,0,-1,6,118)"
         id="text32"><tspan
           x="0 3.4691999 10.8408 15.3288 21.4464 25.2432 32.614799 37.027199 40.824001 47.509201 52.419601 57.330002 64.701599"
           y="0"
           id="tspan34"
           style="font-size:12px;font-variant:normal;font-weight:normal;writing-mode:lr-tb;fill:#000000;fill-opacity:1;fill-rule:nonzero;stroke:none;font-family:LucidaGrande;-inkscape-font-specification:LucidaGrande">lots of error</tspan></text>
<text
         transform="matrix(1,0,0,-1,28.20703,23)"
         id="text36"><tspan
           x="0 7.4471998 14.8224 18.621599 25.312799 30.228001 35.1432 42.518398"
           y="0"
           id="tspan38"
           style="font-size:12px;font-variant:normal;font-weight:normal;writing-mode:lr-tb;fill:#000000;fill-opacity:1;fill-rule:nonzero;stroke:none;font-family:LucidaGrande;-inkscape-font-specification:LucidaGrande">no error</tspan></text>
<path
         d="m 83.60938,75.5 c 0,0 11.03017,8.43684 20.49672,7.02295 9.4666,-1.41389 17.3989,-12.68434 25.5508,-13.77686 8.152,-1.09251 16.5741,7.99213 23.3898,9.25183 6.8156,1.2597 12.0861,-5.29987 15.2079,-5.1698 3.1218,0.13008 4.1572,6.94847 7.8076,8.03882 3.6504,1.09035 9.9738,-3.54714 17.2479,-2.45385 7.274,1.09329 15.5654,7.91848 23.0595,4.75695 7.4941,-3.16152 14.2765,-16.31134 21.5516,-19.41516 7.2751,-3.10381 15.1285,3.8356 22.6688,8.76361 7.5402,4.92802 14.8515,7.85046 22.0597,9.35736 7.2083,1.50691 14.3909,1.60177 18.1395,-0.62158 3.7486,-2.22334 4.1314,-6.76244 5.8043,-6.04419 1.6729,0.71825 4.7014,6.69846 10.7538,6.79798 6.0524,0.09951 15.1995,-5.68045 20.1904,-5.58264 4.9908,0.0978 5.9014,6.07426 10.7537,7.41723 4.8524,1.34297 13.7228,-1.94252 21.1004,-0.61926 7.3775,1.32326 13.3436,7.25833 19.7024,6.79797 6.3587,-0.46036 13.1919,-7.31683 17.9413,-8.91321 4.7494,-1.59637 7.4977,2.0628 12.2104,0 4.7126,-2.06279 11.4794,-9.84923 21.8157,-8.44702 10.3363,1.40221 24.3429,11.98785 33.6996,13.03003 9.3567,1.04219 14.1661,-7.45958 22.3624,-10.54602 8.1964,-3.08644 19.8872,-0.76263 28.1356,1.13648 8.2484,1.8991 13.1623,3.37752 20.6655,2.3518 7.5033,-1.02571 17.7024,-4.55726 24.9271,-3.10327 7.2247,1.45399 11.5762,7.89308 19.6327,8.06665 8.0566,0.17358 19.9254,-5.91913 29.9719,-5.79138 10.0465,0.12775 18.3829,6.47956 28.042,4.31628 9.6591,-2.16327 20.7533,-12.84782 29.9609,-13.69567 9.2076,-0.84786 16.6342,8.13919 26.0498,10.05432 9.4156,1.91512 20.9146,-3.23835 27.1027,-3.4906 6.1882,-0.25226 7.146,4.39937 10.6694,5.53161 3.5235,1.13225 9.6814,-1.24846 13.1497,0 3.4682,1.24846 4.3064,6.13118 10.6693,6.74463 6.363,0.61345 18.3045,-3.04299 24.696,-5.70672 6.3914,-2.66374 7.2754,-4.3397 10.3942,-3.89997 3.1187,0.43973 8.4973,2.99658 8.4973,2.99658"
         inkscape:connector-curvature="0"
         id="path40"
         style="fill:none;stroke:#000000;stroke-width:2;stroke-linecap:round;stroke-linejoin:miter;stroke-miterlimit:10;stroke-opacity:1;stroke-dasharray:none" /><text
         transform="matrix(1,0,0,-1,114.8497,100.9883)"
         id="text42"><tspan
           x="0 7.2954001 17.848801 28.0242 35.319599 41.247002 48.5424 54.3978 71.8452"
           y="0"
           id="tspan44"
           style="font-size:18px;font-variant:normal;font-weight:bold;writing-mode:lr-tb;fill:#ffffff;fill-opacity:1;fill-rule:nonzero;stroke:none;font-family:LucidaGrande;-inkscape-font-specification:LucidaGrande-Bold">test time</tspan></text>
<text
         transform="matrix(1,0,0,-1,500.7531,99.89453)"
         id="text46"><tspan
           x="0 8.1828003 20.0016 31.8204 37.753201 45.054001 50.914799 68.367599"
           y="0"
           id="tspan48"
           style="font-size:18px;font-variant:normal;font-weight:bold;writing-mode:lr-tb;fill:#61ac17;fill-opacity:1;fill-rule:nonzero;stroke:none;font-family:LucidaGrande;-inkscape-font-specification:LucidaGrande-Bold">run time</tspan></text>
</g></g></svg>