<?xml version="1.0" encoding="UTF-8" standalone="no"?>
<!-- Created with Inkscape (http://www.inkscape.org/) -->

<svg
   xmlns:dc="http://purl.org/dc/elements/1.1/"
   xmlns:cc="http://creativecommons.org/ns#"
   xmlns:rdf="http://www.w3.org/1999/02/22-rdf-syntax-ns#"
   xmlns:svg="http://www.w3.org/2000/svg"
   xmlns="http://www.w3.org/2000/svg"
   xmlns:inkscape="http://www.inkscape.org/namespaces/inkscape"
   version="1.1"
   width="1028.75"
   height="171.25"
   id="svg2"
   xml:space="preserve"><metadata
     id="metadata8"><rdf:RDF><cc:Work
         rdf:about=""><dc:format>image/svg+xml</dc:format><dc:type
           rdf:resource="http://purl.org/dc/dcmitype/StillImage" /></cc:Work></rdf:RDF></metadata><defs
     id="defs6" /><g
     transform="matrix(1.25,0,0,-1.25,0,171.25)"
     id="g10"><g
       id="g12" /><g
       id="g14"><path
         d="M 0,0 823,0 823,137 0,137 0,0 z"
         inkscape:connector-curvature="0"
         id="path16"
         style="fill:#ffffff;fill-opacity:1;fill-rule:nonzero;stroke:none" /><path
         d="M 83.60938,123 156.0484,28 228.4875,28 83.60938,123 z"
         inkscape:connector-curvature="0"
         id="path18"
         style="fill:#74b5ff;fill-opacity:0.5;fill-rule:nonzero;stroke:none" /><path
         d="m 83.60938,123 144.87812,0 0,-95 -144.87812,0 0,95 z"
         inkscape:connector-curvature="0"
         id="path20"
         style="fill:#61ac17;fill-opacity:1;fill-rule:nonzero;stroke:none" /><path
         d="M 82.25938,28 809.35,28 m -652.85,6 0,-10 m 72,10 0,-10 m 72,10 0,-10 m 73,10 0,-10 m 72,10 0,-10 m 73,10 0,-10 m 72,10 0,-10 m 73,10 0,-10 m 72,10 0,-10"
         inkscape:connector-curvature="0"
         id="path22"
         style="fill:none;stroke:#000000;stroke-width:3;stroke-linecap:butt;stroke-linejoin:miter;stroke-miterlimit:10;stroke-opacity:1;stroke-dasharray:none" /><path
         d="m 817,28 -18,9 9,-9 -9,-9 18,9 z"
         inkscape:connector-curvature="0"
         id="path24"
         style="fill:#000000;fill-opacity:1;fill-rule:nonzero;stroke:none" /><path
         d="m 83.60938,26.65 0,97.7 m 6,-95.85 -10,0 m 7,9 -5,0 m 5,10 -5,0 m 5,9 -5,0 m 5,10 -5,0 m 8,9 -10,0 m 7,10 -5,0 m 5,9 -5,0 m 5,10 -5,0 m 5,9 -5,0 m 8,10 -10,0"
         inkscape:connector-curvature="0"
         id="path26"
         style="fill:none;stroke:#000000;stroke-width:3;stroke-linecap:butt;stroke-linejoin:miter;stroke-miterlimit:10;stroke-opacity:1;stroke-dasharray:none" /><text
         transform="matrix(1,0,0,-1,432.8818,9)"
         id="text28"><tspan
           x="0 4.4879999 7.9572001 19.1604"
           y="0"
           id="tspan30"
           style="font-size:12px;font-variant:normal;font-weight:normal;writing-mode:lr-tb;fill:#000000;fill-opacity:1;fill-rule:nonzero;stroke:none;font-family:LucidaGrande;-inkscape-font-specification:LucidaGrande">time</tspan></text>
<text
         transform="matrix(1,0,0,-1,6,118)"
         id="text32"><tspan
           x="0 3.4691999 10.8408 15.3288 21.4464 25.2432 32.614799 37.027199 40.824001 47.509201 52.419601 57.330002 64.701599"
           y="0"
           id="tspan34"
           style="font-size:12px;font-variant:normal;font-weight:normal;writing-mode:lr-tb;fill:#000000;fill-opacity:1;fill-rule:nonzero;stroke:none;font-family:LucidaGrande;-inkscape-font-specification:LucidaGrande">lots of error</tspan></text>
<text
         transform="matrix(1,0,0,-1,28.20703,23)"
         id="text36"><tspan
           x="0 7.4471998 14.8224 18.621599 25.312799 30.228001 35.1432 42.518398"
           y="0"
           id="tspan38"
           style="font-size:12px;font-variant:normal;font-weight:normal;writing-mode:lr-tb;fill:#000000;fill-opacity:1;fill-rule:nonzero;stroke:none;font-family:LucidaGrande;-inkscape-font-specification:LucidaGrande">no error</tspan></text>
<path
         d="m 83.60938,75.5 c 0,0 6.25604,6.20011 12.90234,2.20312 6.64628,-3.99698 13.70168,-18.1971 17.58598,-19.76562 3.8842,-1.56852 4.6267,9.4966 8.875,14.40625 4.2482,4.90965 12.039,3.66241 17.2695,1 5.2305,-2.66241 7.9426,-6.74194 10.2266,-6.17969 2.2839,0.56226 4.1777,5.77323 8.2265,8.26953 4.0488,2.49631 10.2894,2.28133 13.2695,-0.08984 2.9802,-2.37117 2.7435,-6.90369 5.1329,-7.22656 2.3893,-0.32288 7.4497,3.56704 10.1796,3 2.73,-0.56704 3.174,-5.58434 4.1797,-5.11719 1.0057,0.46715 2.614,6.42212 7.1367,7.07422 4.5228,0.6521 12.0092,-3.99342 15.1797,-3.08985 3.1706,0.90358 2.0851,7.37238 4.9532,5.51563 2.868,-1.85675 9.7556,-12.02435 16.4062,-6.65234 6.6507,5.372 13.1306,26.30768 22.4063,31.93364 9.2757,5.6259 21.426,-4.03387 25.7187,-2.83208 4.2927,1.20179 0.8157,13.28718 5.1797,15.53908 4.364,2.2519 16.6585,-5.3127 27.5547,-5.875 10.8962,-0.5624 20.4967,5.8875 32.168,5.2265 11.6712,-0.6609 25.5211,-8.4276 31.8984,-8.2734 6.3773,0.1542 5.3832,8.2338 9.3164,8.3164 3.9332,0.0826 12.8953,-7.8249 24.8555,-7.2695 11.9602,0.5554 27.0271,9.5742 33.7773,9.3594 6.7502,-0.2149 5.2898,-9.6615 12.8438,-11.8438 7.554,-2.1823 24.2398,2.9004 41.5117,4.0918 17.2718,1.1914 35.2471,-1.5076 44.9179,-0.0449 9.6709,1.4627 11.1358,7.0883 13.3165,7.2695 2.1807,0.1812 5.1599,-5.0803 8.0898,-5.0898 2.9299,-0.01 5.9057,5.2334 9.1328,4.0429 3.2271,-1.1904 6.79,-8.8129 14.5859,-8.3125 7.796,0.5004 19.8924,9.1175 27.9454,9.4024 8.0529,0.2849 12.1498,-7.7615 15.4492,-8.2695 3.2994,-0.5081 5.8945,6.5239 7.1797,7.1367 1.2851,0.6128 1.3506,-5.1944 13.664,-6.7891 12.3135,-1.5947 36.9646,1.0179 55.6934,2.0918 18.7288,1.0739 31.6269,0.6053 36.6582,-2.0449 5.0313,-2.6502 2.2779,-7.48762 7.0469,-8.08986 4.769,-0.60224 17.1367,3.03486 22.3125,6.13676 5.1757,3.1018 3.2034,5.6712 7.5742,6.5273 4.3707,0.8561 15.0898,0 15.0898,0"
         inkscape:connector-curvature="0"
         id="path40"
         style="fill:none;stroke:#000000;stroke-width:2;stroke-linecap:round;stroke-linejoin:miter;stroke-miterlimit:10;stroke-opacity:1;stroke-dasharray:none" /><text
         transform="matrix(1,0,0,-1,114.8497,100.9883)"
         id="text42"><tspan
           x="0 7.2954001 17.848801 28.0242 35.319599 41.247002 48.5424 54.3978 71.8452"
           y="0"
           id="tspan44"
           style="font-size:18px;font-variant:normal;font-weight:bold;writing-mode:lr-tb;fill:#ffffff;fill-opacity:1;fill-rule:nonzero;stroke:none;font-family:LucidaGrande;-inkscape-font-specification:LucidaGrande-Bold">test time</tspan></text>
<text
         transform="matrix(1,0,0,-1,499.257,73.12891)"
         id="text46"><tspan
           x="0 8.1828003 20.0016 31.8204 37.753201 45.054001 50.914799 68.367599"
           y="0"
           id="tspan48"
           style="font-size:18px;font-variant:normal;font-weight:bold;writing-mode:lr-tb;fill:#61ac17;fill-opacity:1;fill-rule:nonzero;stroke:none;font-family:LucidaGrande;-inkscape-font-specification:LucidaGrande-Bold">run time</tspan></text>
</g></g></svg>