<?xml version="1.0" encoding="UTF-8" standalone="no"?>
<!-- Created with Inkscape (http://www.inkscape.org/) -->

<svg
   xmlns:dc="http://purl.org/dc/elements/1.1/"
   xmlns:cc="http://creativecommons.org/ns#"
   xmlns:rdf="http://www.w3.org/1999/02/22-rdf-syntax-ns#"
   xmlns:svg="http://www.w3.org/2000/svg"
   xmlns="http://www.w3.org/2000/svg"
   xmlns:inkscape="http://www.inkscape.org/namespaces/inkscape"
   version="1.1"
   width="1028.75"
   height="171.25"
   id="svg2"
   xml:space="preserve"><metadata
     id="metadata8"><rdf:RDF><cc:Work
         rdf:about=""><dc:format>image/svg+xml</dc:format><dc:type
           rdf:resource="http://purl.org/dc/dcmitype/StillImage" /></cc:Work></rdf:RDF></metadata><defs
     id="defs6" /><g
     transform="matrix(1.25,0,0,-1.25,0,171.25)"
     id="g10"><g
       id="g12" /><g
       id="g14"><path
         d="M 0,0 823,0 823,137 0,137 0,0 z"
         inkscape:connector-curvature="0"
         id="path16"
         style="fill:#ffffff;fill-opacity:1;fill-rule:nonzero;stroke:none" /><path
         d="M 83.60938,123 156.0484,28 228.4875,28 83.60938,123 z"
         inkscape:connector-curvature="0"
         id="path18"
         style="fill:#74b5ff;fill-opacity:0.5;fill-rule:nonzero;stroke:none" /><path
         d="m 83.60938,123 144.87812,0 0,-95 -144.87812,0 0,95 z"
         inkscape:connector-curvature="0"
         id="path20"
         style="fill:#61ac17;fill-opacity:1;fill-rule:nonzero;stroke:none" /><path
         d="M 82.25938,28 809.35,28 m -652.85,6 0,-10 m 72,10 0,-10 m 72,10 0,-10 m 73,10 0,-10 m 72,10 0,-10 m 73,10 0,-10 m 72,10 0,-10 m 73,10 0,-10 m 72,10 0,-10"
         inkscape:connector-curvature="0"
         id="path22"
         style="fill:none;stroke:#000000;stroke-width:3;stroke-linecap:butt;stroke-linejoin:miter;stroke-miterlimit:10;stroke-opacity:1;stroke-dasharray:none" /><path
         d="m 817,28 -18,9 9,-9 -9,-9 18,9 z"
         inkscape:connector-curvature="0"
         id="path24"
         style="fill:#000000;fill-opacity:1;fill-rule:nonzero;stroke:none" /><path
         d="m 83.60938,26.65 0,97.7 m 6,-95.85 -10,0 m 7,9 -5,0 m 5,10 -5,0 m 5,9 -5,0 m 5,10 -5,0 m 8,9 -10,0 m 7,10 -5,0 m 5,9 -5,0 m 5,10 -5,0 m 5,9 -5,0 m 8,10 -10,0"
         inkscape:connector-curvature="0"
         id="path26"
         style="fill:none;stroke:#000000;stroke-width:3;stroke-linecap:butt;stroke-linejoin:miter;stroke-miterlimit:10;stroke-opacity:1;stroke-dasharray:none" /><text
         transform="matrix(1,0,0,-1,432.8818,9)"
         id="text28"><tspan
           x="0 4.4879999 7.9572001 19.1604"
           y="0"
           id="tspan30"
           style="font-size:12px;font-variant:normal;font-weight:normal;writing-mode:lr-tb;fill:#000000;fill-opacity:1;fill-rule:nonzero;stroke:none;font-family:LucidaGrande;-inkscape-font-specification:LucidaGrande">time</tspan></text>
<text
         transform="matrix(1,0,0,-1,6,118)"
         id="text32"><tspan
           x="0 3.4691999 10.8408 15.3288 21.4464 25.2432 32.614799 37.027199 40.824001 47.509201 52.419601 57.330002 64.701599"
           y="0"
           id="tspan34"
           style="font-size:12px;font-variant:normal;font-weight:normal;writing-mode:lr-tb;fill:#000000;fill-opacity:1;fill-rule:nonzero;stroke:none;font-family:LucidaGrande;-inkscape-font-specification:LucidaGrande">lots of error</tspan></text>
<text
         transform="matrix(1,0,0,-1,28.20703,23)"
         id="text36"><tspan
           x="0 7.4471998 14.8224 18.621599 25.312799 30.228001 35.1432 42.518398"
           y="0"
           id="tspan38"
           style="font-size:12px;font-variant:normal;font-weight:normal;writing-mode:lr-tb;fill:#000000;fill-opacity:1;fill-rule:nonzero;stroke:none;font-family:LucidaGrande;-inkscape-font-specification:LucidaGrande">no error</tspan></text>
<path
         d="m 83.60938,75.82812 c 0,0 4.19252,12.06009 11.15625,9.52344 6.96377,-2.53664 16.71887,-19.67076 23.23827,-20.84375 6.5194,-1.17298 9.8419,13.61579 15.5391,16.44922 5.6971,2.83343 13.8135,-6.28858 17.1797,-7.22656 3.3661,-0.93798 2.0341,6.30591 6.0898,7.08984 4.0557,0.78394 13.5441,-4.88963 18.2266,-5.13281 4.6824,-0.24318 4.605,4.94989 7.0898,5.08984 2.4848,0.13996 7.5857,-4.76897 12,-4 4.4143,0.76897 8.2015,7.2192 9.3164,7.26954 1.1149,0.05033 -0.3865,-6.28714 6,-6 6.3865,0.28713 20.7212,7.1906 28.1328,3.04687 7.4117,-4.14373 7.9652,-19.34124 12.0469,-19.04687 4.0817,0.29436 11.7606,16.09576 18.1797,20.17968 6.4191,4.08393 11.6444,-3.52753 18,0 6.3556,3.52753 13.9039,18.21444 18.1777,31.18164 4.2739,12.9672 5.3278,24.2317 7.0449,23.0449 1.7172,-1.1868 4.1507,-14.8285 7.1368,-28.8164 2.9861,-13.98787 6.5792,-28.3541 11.1367,-31.81639 4.5575,-3.46228 10.1314,3.96608 15.043,3.04688 4.9115,-0.9192 9.2151,-10.20275 13.0898,-10.04688 3.8747,0.15587 7.3746,9.7271 10.2266,11.22656 2.8519,1.49947 5.1059,-5.07443 9.0429,-4.04296 3.937,1.03146 9.6075,9.66763 12,-2 2.3926,-11.66763 1.5583,-43.66048 5.0469,-41.04688 3.4886,2.6136 11.3522,39.8264 17.1445,49.76563 5.7923,9.93922 9.5749,-7.37543 15.3164,-12.31641 5.7416,-4.94098 13.504,2.48396 17.1368,4.04688 3.6327,1.56291 3.2014,-2.73321 7.6347,-3.56836 4.4333,-0.83516 13.793,1.8062 20.9043,2.56835 7.1114,0.76216 12.0374,-0.34772 14.3594,-3.13671 2.322,-2.789 2.1011,-7.2572 8.1367,6.08984 6.0356,13.34704 18.404,44.53175 23.8609,46.64065 5.457,2.1089 4.0753,-24.85414 12.2993,-38.00002 8.224,-13.14589 26.1203,-12.48239 32.6718,-10.97657 6.5516,1.50582 1.8243,3.8476 4,5 2.1758,1.1524 11.3212,1.10388 13,1 1.6788,-0.10387 -4.0486,-0.27885 2,-5 6.0487,-4.72114 23.9309,-13.97604 33.125,-13.53906 9.1942,0.43698 9.7611,10.56322 11.4063,11.44922 1.6452,0.886 4.4276,-7.48939 8.2227,-8.26953 3.795,-0.78015 8.6603,6.04369 12.4492,9.35937 3.7888,3.31569 6.5514,3.13957 10.5234,-0.47656 3.972,-3.61613 9.2007,-10.66281 11.5664,2.56641 2.3657,13.22921 1.9145,46.73794 3.0938,46.83984 1.1793,0.1019 4.0469,-33.20361 9.2226,-48.19922 5.1758,-14.99561 12.7131,-11.6878 15.4492,-8.26953 2.7362,3.41827 0.7169,6.93883 5.0899,7.08984 4.373,0.15102 15.1878,-3.07841 22.8906,-1 7.7029,2.07842 12.3543,9.46035 18.0898,7.17969 5.7356,-2.28066 12.6145,-14.21815 21.7188,-15.49609 9.1043,-1.27795 20.4782,8.11217 30.1191,11.64648 9.6409,3.53431 17.5801,1.19727 17.5801,1.19727"
         inkscape:connector-curvature="0"
         id="path40"
         style="fill:none;stroke:#000000;stroke-width:2;stroke-linecap:round;stroke-linejoin:miter;stroke-miterlimit:10;stroke-opacity:1;stroke-dasharray:none" /><text
         transform="matrix(1,0,0,-1,114.8497,100.9883)"
         id="text42"><tspan
           x="0 7.2954001 17.848801 28.0242 35.319599 41.247002 48.5424 54.3978 71.8452"
           y="0"
           id="tspan44"
           style="font-size:18px;font-variant:normal;font-weight:bold;writing-mode:lr-tb;fill:#ffffff;fill-opacity:1;fill-rule:nonzero;stroke:none;font-family:LucidaGrande;-inkscape-font-specification:LucidaGrande-Bold">test time</tspan></text>
<text
         transform="matrix(1,0,0,-1,404.6789,101.8945)"
         id="text46"><tspan
           x="0 8.1828003 20.0016 31.8204 37.753201 45.054001 50.914799 68.367599"
           y="0"
           id="tspan48"
           style="font-size:18px;font-variant:normal;font-weight:bold;writing-mode:lr-tb;fill:#61ac17;fill-opacity:1;fill-rule:nonzero;stroke:none;font-family:LucidaGrande;-inkscape-font-specification:LucidaGrande-Bold">run time</tspan></text>
</g></g></svg>